<svg xmlns="http://www.w3.org/2000/svg" xmlns:xlink="http://www.w3.org/1999/xlink" width="500" zoomAndPan="magnify" viewBox="0 0 375 374.999991" height="500" preserveAspectRatio="xMidYMid meet" version="1.0"><defs><clipPath id="id1"><path d="M 3 3.28125 L 373 3.28125 L 373 371.53125 L 3 371.53125 Z M 3 3.28125 " clip-rule="nonzero"/></clipPath></defs><g clip-path="url(#id1)"><path fill="#ffffff" d="M 372.027344 273.332031 C 372.019531 271.738281 371.859375 270.15625 371.542969 268.59375 C 371.230469 267.03125 370.765625 265.511719 370.15625 264.039062 C 369.546875 262.566406 368.796875 261.164062 367.914062 259.835938 C 367.03125 258.507812 366.027344 257.277344 364.902344 256.144531 C 365.609375 255.304688 366.265625 254.425781 366.878906 253.515625 C 367.492188 252.601562 368.050781 251.660156 368.558594 250.6875 C 369.070312 249.714844 369.527344 248.714844 369.925781 247.695312 C 370.328125 246.671875 370.675781 245.628906 370.964844 244.570312 C 371.253906 243.511719 371.484375 242.441406 371.660156 241.355469 C 371.832031 240.269531 371.949219 239.179688 372.003906 238.082031 C 372.058594 236.984375 372.054688 235.890625 371.992188 234.792969 C 371.929688 233.695312 371.808594 232.605469 371.628906 231.523438 C 371.449219 230.441406 371.210938 229.371094 370.914062 228.3125 C 370.617188 227.253906 370.265625 226.214844 369.859375 225.195312 C 369.449219 224.175781 368.988281 223.179688 368.472656 222.210938 C 367.957031 221.242188 367.390625 220.300781 366.773438 219.394531 C 366.15625 218.484375 365.492188 217.613281 364.78125 216.773438 C 364.070312 215.9375 363.316406 215.140625 362.519531 214.386719 C 361.71875 213.628906 360.882812 212.917969 360.011719 212.253906 C 359.136719 211.585938 358.230469 210.972656 357.289062 210.402344 C 357.625 209.710938 357.929688 209.003906 358.203125 208.28125 C 358.472656 207.558594 358.707031 206.824219 358.910156 206.078125 C 359.109375 205.335938 359.277344 204.582031 359.40625 203.820312 C 359.535156 203.0625 359.628906 202.296875 359.6875 201.527344 C 359.746094 200.757812 359.765625 199.988281 359.75 199.21875 C 359.738281 198.445312 359.683594 197.675781 359.597656 196.910156 C 359.507812 196.144531 359.382812 195.382812 359.222656 194.628906 C 359.0625 193.875 358.867188 193.128906 358.636719 192.394531 C 358.40625 191.65625 358.140625 190.933594 357.84375 190.222656 C 357.542969 189.511719 357.210938 188.816406 356.847656 188.136719 C 356.480469 187.457031 356.085938 186.796875 355.65625 186.152344 C 355.230469 185.511719 354.773438 184.890625 354.285156 184.292969 C 353.800781 183.695312 353.285156 183.121094 352.746094 182.570312 C 352.203125 182.019531 351.640625 181.496094 351.046875 181 C 350.457031 180.5 349.84375 180.035156 349.210938 179.59375 C 348.574219 179.15625 347.921875 178.75 347.25 178.371094 C 346.984375 176.738281 346.503906 175.171875 345.816406 173.664062 C 345.128906 172.160156 344.253906 170.773438 343.195312 169.503906 C 342.132812 168.234375 340.921875 167.128906 339.5625 166.183594 C 338.203125 165.242188 336.742188 164.492188 335.183594 163.941406 L 335.183594 70.792969 C 335.183594 70.390625 335.144531 69.992188 335.0625 69.597656 C 334.984375 69.199219 334.867188 68.816406 334.714844 68.445312 C 334.558594 68.074219 334.371094 67.71875 334.148438 67.382812 C 333.921875 67.050781 333.667969 66.738281 333.382812 66.453125 C 333.097656 66.167969 332.789062 65.914062 332.453125 65.691406 C 332.117188 65.464844 331.765625 65.277344 331.390625 65.125 C 331.019531 64.96875 330.632812 64.851562 330.238281 64.773438 C 329.84375 64.695312 329.445312 64.65625 329.042969 64.65625 L 193.949219 64.65625 L 193.949219 9.417969 C 193.949219 9.015625 193.910156 8.617188 193.828125 8.222656 C 193.75 7.824219 193.632812 7.441406 193.480469 7.070312 C 193.324219 6.699219 193.136719 6.34375 192.914062 6.007812 C 192.6875 5.675781 192.433594 5.363281 192.148438 5.078125 C 191.863281 4.792969 191.554688 4.539062 191.21875 4.316406 C 190.882812 4.089844 190.53125 3.902344 190.15625 3.75 C 189.785156 3.59375 189.402344 3.476562 189.003906 3.398438 C 188.609375 3.320312 188.210938 3.28125 187.808594 3.28125 L 46.574219 3.28125 C 46.167969 3.28125 45.769531 3.320312 45.375 3.398438 C 44.980469 3.476562 44.59375 3.59375 44.222656 3.75 C 43.851562 3.902344 43.496094 4.089844 43.160156 4.316406 C 42.824219 4.539062 42.515625 4.792969 42.230469 5.078125 C 41.945312 5.363281 41.691406 5.675781 41.46875 6.007812 C 41.242188 6.34375 41.054688 6.699219 40.898438 7.070312 C 40.746094 7.441406 40.628906 7.824219 40.550781 8.222656 C 40.472656 8.617188 40.433594 9.015625 40.433594 9.417969 L 40.433594 163.941406 C 38.871094 164.492188 37.414062 165.238281 36.054688 166.183594 C 34.695312 167.125 33.484375 168.230469 32.425781 169.5 C 31.363281 170.769531 30.492188 172.15625 29.804688 173.660156 C 29.117188 175.164062 28.640625 176.734375 28.378906 178.367188 C 27.703125 178.742188 27.050781 179.148438 26.414062 179.589844 C 25.78125 180.027344 25.167969 180.496094 24.574219 180.992188 C 23.984375 181.488281 23.417969 182.011719 22.878906 182.5625 C 22.335938 183.113281 21.824219 183.6875 21.335938 184.285156 C 20.847656 184.886719 20.390625 185.503906 19.964844 186.148438 C 19.535156 186.789062 19.140625 187.449219 18.773438 188.128906 C 18.410156 188.808594 18.074219 189.503906 17.777344 190.214844 C 17.476562 190.925781 17.210938 191.652344 16.980469 192.386719 C 16.75 193.125 16.554688 193.871094 16.394531 194.625 C 16.234375 195.378906 16.109375 196.140625 16.019531 196.90625 C 15.933594 197.671875 15.878906 198.441406 15.863281 199.210938 C 15.847656 199.984375 15.871094 200.753906 15.925781 201.523438 C 15.984375 202.292969 16.078125 203.058594 16.207031 203.820312 C 16.339844 204.578125 16.503906 205.332031 16.707031 206.078125 C 16.90625 206.824219 17.140625 207.554688 17.414062 208.277344 C 17.683594 209 17.988281 209.710938 18.324219 210.402344 C 17.386719 210.972656 16.476562 211.585938 15.605469 212.253906 C 14.730469 212.917969 13.894531 213.628906 13.097656 214.386719 C 12.300781 215.140625 11.542969 215.9375 10.832031 216.773438 C 10.121094 217.613281 9.457031 218.484375 8.839844 219.394531 C 8.222656 220.300781 7.65625 221.242188 7.140625 222.210938 C 6.625 223.179688 6.164062 224.175781 5.757812 225.195312 C 5.347656 226.214844 4.996094 227.253906 4.699219 228.3125 C 4.402344 229.371094 4.164062 230.441406 3.984375 231.523438 C 3.804688 232.605469 3.683594 233.695312 3.621094 234.792969 C 3.558594 235.890625 3.554688 236.984375 3.609375 238.082031 C 3.667969 239.179688 3.78125 240.269531 3.957031 241.355469 C 4.128906 242.441406 4.359375 243.511719 4.648438 244.570312 C 4.9375 245.628906 5.285156 246.671875 5.6875 247.695312 C 6.089844 248.714844 6.542969 249.714844 7.054688 250.6875 C 7.5625 251.660156 8.125 252.601562 8.734375 253.515625 C 9.347656 254.425781 10.003906 255.304688 10.710938 256.144531 C 9.863281 257 9.085938 257.914062 8.371094 258.882812 C 7.660156 259.851562 7.023438 260.867188 6.457031 261.929688 C 5.894531 262.992188 5.414062 264.09375 5.011719 265.226562 C 4.613281 266.359375 4.296875 267.519531 4.066406 268.699219 C 3.835938 269.878906 3.695312 271.070312 3.636719 272.273438 C 3.582031 273.472656 3.617188 274.671875 3.738281 275.867188 C 3.863281 277.066406 4.070312 278.246094 4.367188 279.414062 C 4.664062 280.578125 5.042969 281.714844 5.507812 282.828125 C 5.96875 283.9375 6.511719 285.007812 7.132812 286.035156 C 7.753906 287.066406 8.449219 288.046875 9.214844 288.972656 C 9.980469 289.902344 10.8125 290.769531 11.703125 291.574219 C 12.597656 292.378906 13.546875 293.117188 14.546875 293.78125 C 15.550781 294.449219 16.59375 295.035156 17.683594 295.550781 C 18.773438 296.0625 19.894531 296.492188 21.046875 296.839844 C 22.199219 297.183594 23.367188 297.445312 24.558594 297.621094 C 25.75 297.796875 26.949219 297.882812 28.152344 297.882812 L 28.152344 359.257812 L 3.589844 359.257812 L 3.589844 371.53125 L 89.558594 371.53125 L 89.558594 359.257812 L 64.996094 359.257812 L 64.996094 297.882812 C 66.199219 297.882812 67.394531 297.796875 68.585938 297.621094 C 69.777344 297.445312 70.949219 297.183594 72.101562 296.839844 C 73.253906 296.492188 74.371094 296.0625 75.460938 295.550781 C 76.550781 295.035156 77.597656 294.449219 78.597656 293.78125 C 79.601562 293.117188 80.546875 292.378906 81.441406 291.574219 C 82.335938 290.769531 83.164062 289.902344 83.929688 288.972656 C 84.695312 288.046875 85.390625 287.066406 86.011719 286.035156 C 86.632812 285.007812 87.175781 283.9375 87.640625 282.828125 C 88.101562 281.714844 88.484375 280.578125 88.777344 279.414062 C 89.074219 278.246094 89.285156 277.066406 89.40625 275.867188 C 89.527344 274.671875 89.5625 273.472656 89.507812 272.273438 C 89.453125 271.070312 89.308594 269.878906 89.078125 268.699219 C 88.847656 267.519531 88.53125 266.359375 88.132812 265.226562 C 87.730469 264.09375 87.25 262.992188 86.6875 261.929688 C 86.125 260.867188 85.484375 259.851562 84.773438 258.882812 C 84.0625 257.914062 83.28125 257 82.433594 256.144531 C 83.140625 255.304688 83.796875 254.425781 84.410156 253.515625 C 85.023438 252.601562 85.582031 251.660156 86.089844 250.6875 C 86.601562 249.714844 87.058594 248.714844 87.457031 247.695312 C 87.859375 246.671875 88.207031 245.628906 88.496094 244.570312 C 88.785156 243.511719 89.015625 242.441406 89.191406 241.355469 C 89.363281 240.269531 89.480469 239.179688 89.535156 238.082031 C 89.589844 236.988281 89.585938 235.890625 89.523438 234.792969 C 89.460938 233.695312 89.339844 232.605469 89.160156 231.523438 C 88.980469 230.441406 88.742188 229.371094 88.445312 228.3125 C 88.148438 227.253906 87.796875 226.214844 87.390625 225.195312 C 86.980469 224.175781 86.519531 223.179688 86.003906 222.210938 C 85.488281 221.242188 84.921875 220.300781 84.304688 219.394531 C 83.6875 218.484375 83.023438 217.613281 82.3125 216.773438 C 81.601562 215.9375 80.847656 215.140625 80.050781 214.386719 C 79.25 213.628906 78.414062 212.917969 77.542969 212.253906 C 76.667969 211.585938 75.761719 210.972656 74.820312 210.402344 C 75.15625 209.710938 75.460938 209 75.734375 208.28125 C 76.003906 207.558594 76.238281 206.824219 76.441406 206.078125 C 76.640625 205.332031 76.808594 204.582031 76.9375 203.820312 C 77.070312 203.058594 77.164062 202.296875 77.21875 201.527344 C 77.277344 200.757812 77.300781 199.988281 77.285156 199.214844 C 77.269531 198.445312 77.214844 197.675781 77.128906 196.910156 C 77.039062 196.140625 76.917969 195.382812 76.757812 194.625 C 76.597656 193.871094 76.402344 193.125 76.171875 192.390625 C 75.9375 191.652344 75.675781 190.929688 75.375 190.21875 C 75.074219 189.507812 74.742188 188.8125 74.378906 188.132812 C 74.011719 187.453125 73.617188 186.792969 73.1875 186.148438 C 72.761719 185.507812 72.304688 184.886719 71.816406 184.289062 C 71.332031 183.6875 70.816406 183.113281 70.277344 182.5625 C 69.734375 182.015625 69.171875 181.488281 68.578125 180.992188 C 67.988281 180.496094 67.375 180.027344 66.742188 179.589844 C 66.105469 179.152344 65.453125 178.742188 64.78125 178.367188 C 64.515625 176.734375 64.039062 175.164062 63.351562 173.660156 C 62.664062 172.15625 61.789062 170.769531 60.726562 169.5 C 59.664062 168.230469 58.453125 167.125 57.09375 166.179688 C 55.734375 165.238281 54.273438 164.492188 52.714844 163.941406 L 52.714844 15.554688 L 181.667969 15.554688 L 181.667969 166.3125 L 103.816406 238.121094 C 103.183594 238.703125 102.695312 239.386719 102.351562 240.175781 C 102.007812 240.960938 101.835938 241.785156 101.839844 242.644531 L 101.839844 365.394531 C 101.839844 365.796875 101.878906 366.195312 101.957031 366.589844 C 102.035156 366.984375 102.152344 367.371094 102.304688 367.742188 C 102.460938 368.113281 102.648438 368.46875 102.875 368.804688 C 103.097656 369.136719 103.351562 369.449219 103.636719 369.734375 C 103.921875 370.019531 104.230469 370.273438 104.566406 370.496094 C 104.902344 370.722656 105.257812 370.910156 105.628906 371.0625 C 106 371.21875 106.386719 371.335938 106.78125 371.414062 C 107.175781 371.492188 107.574219 371.53125 107.980469 371.53125 L 267.636719 371.53125 C 268.039062 371.53125 268.4375 371.492188 268.832031 371.414062 C 269.230469 371.335938 269.613281 371.21875 269.984375 371.0625 C 270.359375 370.910156 270.710938 370.722656 271.046875 370.496094 C 271.382812 370.273438 271.691406 370.019531 271.976562 369.734375 C 272.261719 369.449219 272.515625 369.136719 272.742188 368.804688 C 272.964844 368.46875 273.152344 368.113281 273.308594 367.742188 C 273.460938 367.371094 273.578125 366.984375 273.65625 366.589844 C 273.738281 366.195312 273.777344 365.796875 273.777344 365.394531 L 273.777344 242.644531 C 273.773438 241.789062 273.601562 240.96875 273.257812 240.183594 C 272.914062 239.402344 272.429688 238.71875 271.796875 238.140625 L 193.949219 166.3125 L 193.949219 76.929688 L 322.902344 76.929688 L 322.902344 163.941406 C 321.339844 164.496094 319.882812 165.242188 318.523438 166.1875 C 317.167969 167.132812 315.957031 168.238281 314.894531 169.507812 C 313.835938 170.777344 312.960938 172.164062 312.273438 173.667969 C 311.589844 175.171875 311.113281 176.738281 310.847656 178.371094 C 310.171875 178.75 309.519531 179.15625 308.882812 179.59375 C 308.25 180.03125 307.636719 180.5 307.046875 180.996094 C 306.453125 181.492188 305.886719 182.015625 305.347656 182.566406 C 304.804688 183.117188 304.292969 183.691406 303.804688 184.289062 C 303.320312 184.890625 302.859375 185.507812 302.433594 186.152344 C 302.003906 186.792969 301.609375 187.453125 301.242188 188.132812 C 300.878906 188.8125 300.546875 189.507812 300.246094 190.21875 C 299.945312 190.929688 299.679688 191.652344 299.449219 192.390625 C 299.21875 193.125 299.023438 193.871094 298.863281 194.625 C 298.703125 195.382812 298.578125 196.140625 298.488281 196.90625 C 298.402344 197.675781 298.347656 198.441406 298.332031 199.214844 C 298.316406 199.984375 298.339844 200.757812 298.394531 201.527344 C 298.453125 202.296875 298.546875 203.058594 298.675781 203.820312 C 298.808594 204.582031 298.972656 205.332031 299.175781 206.078125 C 299.375 206.824219 299.609375 207.558594 299.882812 208.277344 C 300.152344 209 300.457031 209.710938 300.792969 210.402344 C 299.855469 210.972656 298.945312 211.585938 298.074219 212.253906 C 297.199219 212.917969 296.363281 213.628906 295.566406 214.386719 C 294.769531 215.140625 294.011719 215.9375 293.300781 216.773438 C 292.589844 217.613281 291.925781 218.484375 291.308594 219.394531 C 290.691406 220.300781 290.125 221.242188 289.609375 222.210938 C 289.09375 223.179688 288.632812 224.175781 288.226562 225.195312 C 287.816406 226.214844 287.464844 227.253906 287.167969 228.3125 C 286.871094 229.371094 286.632812 230.441406 286.453125 231.523438 C 286.273438 232.605469 286.152344 233.695312 286.089844 234.792969 C 286.027344 235.890625 286.023438 236.984375 286.078125 238.082031 C 286.136719 239.179688 286.25 240.269531 286.425781 241.355469 C 286.597656 242.441406 286.828125 243.511719 287.117188 244.570312 C 287.40625 245.628906 287.753906 246.671875 288.15625 247.695312 C 288.558594 248.714844 289.011719 249.714844 289.523438 250.6875 C 290.03125 251.660156 290.59375 252.601562 291.203125 253.515625 C 291.816406 254.425781 292.472656 255.304688 293.179688 256.144531 C 292.332031 257 291.554688 257.914062 290.839844 258.882812 C 290.128906 259.851562 289.492188 260.867188 288.925781 261.929688 C 288.363281 262.992188 287.882812 264.09375 287.480469 265.226562 C 287.082031 266.359375 286.765625 267.519531 286.535156 268.699219 C 286.304688 269.878906 286.164062 271.070312 286.105469 272.273438 C 286.050781 273.472656 286.085938 274.671875 286.207031 275.867188 C 286.332031 277.066406 286.539062 278.246094 286.835938 279.414062 C 287.132812 280.578125 287.511719 281.714844 287.976562 282.828125 C 288.4375 283.9375 288.980469 285.007812 289.601562 286.035156 C 290.222656 287.066406 290.917969 288.046875 291.683594 288.972656 C 292.449219 289.902344 293.277344 290.769531 294.171875 291.574219 C 295.066406 292.378906 296.015625 293.117188 297.015625 293.78125 C 298.019531 294.449219 299.0625 295.035156 300.152344 295.550781 C 301.242188 296.0625 302.363281 296.492188 303.515625 296.839844 C 304.667969 297.183594 305.835938 297.445312 307.027344 297.621094 C 308.21875 297.796875 309.417969 297.882812 310.621094 297.882812 L 310.621094 359.257812 L 286.058594 359.257812 L 286.058594 371.53125 L 372.027344 371.53125 L 372.027344 359.257812 L 347.464844 359.257812 L 347.464844 297.882812 C 348.269531 297.882812 349.070312 297.84375 349.871094 297.761719 C 350.671875 297.683594 351.464844 297.566406 352.253906 297.410156 C 353.042969 297.253906 353.824219 297.058594 354.59375 296.824219 C 355.363281 296.589844 356.121094 296.320312 356.863281 296.011719 C 357.605469 295.703125 358.332031 295.363281 359.042969 294.980469 C 359.75 294.601562 360.441406 294.191406 361.109375 293.742188 C 361.777344 293.296875 362.421875 292.820312 363.046875 292.308594 C 363.667969 291.796875 364.261719 291.257812 364.832031 290.691406 C 365.402344 290.121094 365.941406 289.527344 366.449219 288.90625 C 366.960938 288.285156 367.4375 287.640625 367.886719 286.96875 C 368.332031 286.300781 368.746094 285.613281 369.125 284.902344 C 369.503906 284.195312 369.847656 283.46875 370.15625 282.726562 C 370.464844 281.984375 370.734375 281.226562 370.96875 280.457031 C 371.203125 279.6875 371.398438 278.910156 371.554688 278.121094 C 371.710938 277.332031 371.828125 276.539062 371.90625 275.738281 C 371.988281 274.9375 372.027344 274.136719 372.027344 273.332031 Z M 56.722656 188.15625 C 57.21875 188.324219 57.699219 188.519531 58.167969 188.75 C 58.640625 188.980469 59.09375 189.238281 59.527344 189.527344 C 59.964844 189.8125 60.378906 190.128906 60.777344 190.46875 C 61.171875 190.8125 61.542969 191.175781 61.890625 191.566406 C 62.238281 191.957031 62.5625 192.363281 62.859375 192.796875 C 63.152344 193.226562 63.421875 193.675781 63.660156 194.140625 C 63.894531 194.605469 64.101562 195.082031 64.28125 195.574219 C 64.457031 196.066406 64.601562 196.566406 64.710938 197.078125 C 64.824219 197.585938 64.902344 198.101562 64.945312 198.625 C 64.992188 199.144531 65.003906 199.664062 64.980469 200.1875 C 64.960938 200.707031 64.90625 201.226562 64.816406 201.742188 C 64.726562 202.257812 64.605469 202.761719 64.453125 203.261719 C 64.296875 203.761719 64.113281 204.25 63.894531 204.722656 C 63.679688 205.199219 63.433594 205.660156 63.15625 206.101562 C 62.882812 206.546875 62.578125 206.96875 62.246094 207.375 C 61.917969 207.777344 61.5625 208.160156 61.179688 208.519531 C 60.789062 208.894531 60.453125 209.3125 60.171875 209.777344 C 59.890625 210.238281 59.675781 210.730469 59.523438 211.25 C 59.375 211.773438 59.292969 212.304688 59.285156 212.84375 C 59.273438 213.386719 59.335938 213.921875 59.46875 214.445312 C 59.597656 214.972656 59.796875 215.472656 60.0625 215.945312 C 60.324219 216.417969 60.644531 216.847656 61.023438 217.238281 C 61.402344 217.625 61.824219 217.957031 62.289062 218.234375 C 62.757812 218.511719 63.25 218.722656 63.773438 218.867188 C 64.613281 219.097656 65.429688 219.382812 66.230469 219.726562 C 67.027344 220.074219 67.796875 220.472656 68.539062 220.929688 C 69.28125 221.382812 69.988281 221.890625 70.65625 222.445312 C 71.328125 223 71.953125 223.601562 72.539062 224.246094 C 73.121094 224.890625 73.65625 225.570312 74.144531 226.292969 C 74.628906 227.015625 75.0625 227.765625 75.441406 228.546875 C 75.824219 229.332031 76.144531 230.136719 76.410156 230.964844 C 76.675781 231.792969 76.878906 232.636719 77.023438 233.496094 C 77.167969 234.351562 77.25 235.214844 77.273438 236.085938 C 77.292969 236.953125 77.253906 237.820312 77.152344 238.683594 C 77.050781 239.546875 76.886719 240.402344 76.664062 241.242188 C 76.441406 242.082031 76.15625 242.902344 75.816406 243.703125 C 75.476562 244.503906 75.082031 245.273438 74.632812 246.019531 C 74.179688 246.761719 73.679688 247.472656 73.128906 248.144531 C 72.578125 248.816406 71.980469 249.449219 71.339844 250.035156 C 70.695312 250.625 70.015625 251.164062 69.300781 251.652344 C 68.855469 251.960938 68.460938 252.320312 68.109375 252.730469 C 67.761719 253.140625 67.472656 253.589844 67.242188 254.078125 C 67.011719 254.566406 66.847656 255.074219 66.75 255.605469 C 66.65625 256.136719 66.628906 256.667969 66.671875 257.207031 C 66.71875 257.746094 66.832031 258.265625 67.015625 258.773438 C 67.195312 259.28125 67.441406 259.757812 67.75 260.199219 C 68.054688 260.640625 68.414062 261.039062 68.828125 261.386719 C 69.238281 261.734375 69.6875 262.023438 70.175781 262.253906 C 71.238281 262.738281 72.207031 263.363281 73.089844 264.128906 C 73.96875 264.894531 74.726562 265.765625 75.355469 266.75 C 75.984375 267.730469 76.460938 268.78125 76.789062 269.902344 C 77.117188 271.023438 77.277344 272.164062 77.277344 273.332031 C 77.28125 273.820312 77.257812 274.3125 77.207031 274.800781 C 77.152344 275.289062 77.070312 275.769531 76.960938 276.25 C 76.847656 276.726562 76.707031 277.199219 76.539062 277.660156 C 76.371094 278.121094 76.175781 278.570312 75.949219 279.007812 C 75.726562 279.445312 75.476562 279.867188 75.203125 280.273438 C 74.929688 280.679688 74.628906 281.070312 74.308594 281.441406 C 73.984375 281.808594 73.640625 282.160156 73.277344 282.488281 C 72.914062 282.816406 72.527344 283.125 72.125 283.40625 C 71.726562 283.6875 71.308594 283.945312 70.875 284.175781 C 70.441406 284.40625 69.996094 284.613281 69.535156 284.789062 C 69.078125 284.96875 68.613281 285.117188 68.136719 285.238281 C 67.660156 285.355469 67.175781 285.449219 66.691406 285.511719 C 66.203125 285.574219 65.714844 285.605469 65.222656 285.605469 C 64.730469 285.609375 64.242188 285.582031 63.753906 285.523438 C 63.265625 285.46875 62.78125 285.382812 62.304688 285.265625 C 61.828125 285.148438 61.359375 285.003906 60.898438 284.832031 C 60.4375 284.667969 59.960938 284.5625 59.472656 284.515625 C 58.984375 284.464844 58.496094 284.472656 58.011719 284.539062 C 57.523438 284.609375 57.050781 284.730469 56.597656 284.914062 C 56.140625 285.09375 55.710938 285.324219 55.308594 285.609375 C 54.910156 285.890625 54.546875 286.21875 54.226562 286.585938 C 53.902344 286.957031 53.628906 287.359375 53.402344 287.796875 C 53.175781 288.230469 53.003906 288.6875 52.890625 289.164062 C 52.773438 289.640625 52.714844 290.125 52.714844 290.613281 L 52.714844 359.257812 L 40.433594 359.257812 L 40.433594 290.613281 C 40.429688 290.125 40.375 289.640625 40.257812 289.164062 C 40.140625 288.6875 39.96875 288.230469 39.742188 287.796875 C 39.515625 287.359375 39.242188 286.957031 38.921875 286.585938 C 38.597656 286.21875 38.234375 285.890625 37.835938 285.609375 C 37.433594 285.324219 37.003906 285.09375 36.550781 284.914062 C 36.09375 284.730469 35.621094 284.609375 35.136719 284.539062 C 34.648438 284.472656 34.160156 284.464844 33.671875 284.515625 C 33.183594 284.5625 32.710938 284.667969 32.246094 284.832031 C 31.515625 285.082031 30.769531 285.257812 30.007812 285.363281 C 29.246094 285.46875 28.480469 285.503906 27.710938 285.464844 C 26.941406 285.429688 26.183594 285.316406 25.433594 285.136719 C 24.683594 284.953125 23.960938 284.703125 23.257812 284.386719 C 22.558594 284.066406 21.894531 283.6875 21.265625 283.242188 C 20.636719 282.796875 20.054688 282.296875 19.519531 281.742188 C 18.984375 281.191406 18.507812 280.589844 18.085938 279.945312 C 17.664062 279.300781 17.308594 278.621094 17.015625 277.910156 C 16.722656 277.199219 16.5 276.464844 16.34375 275.710938 C 16.191406 274.957031 16.109375 274.195312 16.097656 273.425781 C 16.089844 272.65625 16.152344 271.890625 16.285156 271.132812 C 16.421875 270.375 16.625 269.636719 16.898438 268.917969 C 17.171875 268.199219 17.511719 267.511719 17.917969 266.855469 C 18.320312 266.199219 18.785156 265.589844 19.304688 265.023438 C 19.824219 264.453125 20.390625 263.941406 21.007812 263.480469 C 21.625 263.019531 22.28125 262.621094 22.972656 262.285156 C 23.464844 262.054688 23.917969 261.765625 24.332031 261.417969 C 24.75 261.070312 25.113281 260.671875 25.421875 260.230469 C 25.730469 259.785156 25.976562 259.308594 26.160156 258.796875 C 26.34375 258.289062 26.460938 257.761719 26.503906 257.222656 C 26.550781 256.683594 26.523438 256.148438 26.425781 255.613281 C 26.328125 255.082031 26.164062 254.570312 25.929688 254.082031 C 25.695312 253.59375 25.402344 253.140625 25.050781 252.730469 C 24.699219 252.316406 24.300781 251.960938 23.851562 251.652344 C 23.132812 251.164062 22.453125 250.625 21.8125 250.035156 C 21.171875 249.449219 20.574219 248.816406 20.023438 248.144531 C 19.472656 247.472656 18.972656 246.761719 18.519531 246.019531 C 18.070312 245.273438 17.675781 244.503906 17.335938 243.703125 C 16.992188 242.902344 16.710938 242.082031 16.488281 241.242188 C 16.265625 240.402344 16.101562 239.546875 16 238.683594 C 15.898438 237.820312 15.855469 236.953125 15.878906 236.085938 C 15.898438 235.214844 15.984375 234.351562 16.128906 233.496094 C 16.273438 232.636719 16.476562 231.792969 16.742188 230.964844 C 17.007812 230.136719 17.328125 229.332031 17.707031 228.546875 C 18.085938 227.765625 18.519531 227.015625 19.007812 226.292969 C 19.496094 225.570312 20.03125 224.890625 20.613281 224.246094 C 21.199219 223.601562 21.824219 223 22.496094 222.445312 C 23.164062 221.890625 23.871094 221.382812 24.609375 220.929688 C 25.351562 220.472656 26.121094 220.074219 26.921875 219.726562 C 27.71875 219.382812 28.539062 219.097656 29.378906 218.867188 C 29.902344 218.722656 30.394531 218.511719 30.859375 218.234375 C 31.328125 217.957031 31.75 217.625 32.128906 217.238281 C 32.503906 216.847656 32.828125 216.417969 33.089844 215.945312 C 33.355469 215.472656 33.550781 214.972656 33.683594 214.445312 C 33.816406 213.921875 33.875 213.386719 33.867188 212.84375 C 33.855469 212.304688 33.777344 211.773438 33.625 211.25 C 33.476562 210.730469 33.261719 210.238281 32.980469 209.777344 C 32.699219 209.3125 32.363281 208.894531 31.96875 208.519531 C 31.589844 208.160156 31.234375 207.777344 30.90625 207.375 C 30.574219 206.96875 30.269531 206.546875 29.996094 206.101562 C 29.71875 205.660156 29.472656 205.199219 29.253906 204.722656 C 29.039062 204.25 28.851562 203.761719 28.699219 203.261719 C 28.546875 202.761719 28.421875 202.257812 28.335938 201.742188 C 28.246094 201.226562 28.191406 200.707031 28.167969 200.1875 C 28.148438 199.664062 28.160156 199.144531 28.203125 198.625 C 28.25 198.101562 28.328125 197.585938 28.441406 197.078125 C 28.550781 196.566406 28.695312 196.066406 28.871094 195.574219 C 29.046875 195.082031 29.253906 194.605469 29.492188 194.140625 C 29.730469 193.675781 29.996094 193.226562 30.292969 192.796875 C 30.589844 192.363281 30.910156 191.957031 31.257812 191.566406 C 31.609375 191.175781 31.980469 190.8125 32.375 190.46875 C 32.769531 190.128906 33.1875 189.8125 33.625 189.527344 C 34.058594 189.238281 34.511719 188.980469 34.980469 188.75 C 35.449219 188.519531 35.933594 188.324219 36.429688 188.15625 C 37.085938 187.867188 37.679688 187.484375 38.214844 187.007812 C 38.746094 186.53125 39.195312 185.984375 39.554688 185.363281 C 39.914062 184.746094 40.167969 184.085938 40.320312 183.386719 C 40.46875 182.6875 40.507812 181.980469 40.433594 181.269531 C 40.425781 180.867188 40.460938 180.464844 40.535156 180.070312 C 40.609375 179.675781 40.722656 179.289062 40.871094 178.914062 C 41.023438 178.539062 41.207031 178.183594 41.425781 177.847656 C 41.648438 177.507812 41.898438 177.195312 42.179688 176.910156 C 42.460938 176.621094 42.769531 176.363281 43.101562 176.132812 C 43.433594 175.90625 43.785156 175.714844 44.15625 175.554688 C 44.527344 175.394531 44.910156 175.277344 45.304688 175.191406 C 45.699219 175.109375 46.097656 175.066406 46.503906 175.0625 C 46.90625 175.054688 47.304688 175.089844 47.703125 175.164062 C 48.097656 175.238281 48.484375 175.351562 48.855469 175.5 C 49.230469 175.652344 49.585938 175.835938 49.925781 176.054688 C 50.261719 176.277344 50.578125 176.527344 50.863281 176.808594 C 51.152344 177.089844 51.410156 177.398438 51.640625 177.730469 C 51.867188 178.0625 52.058594 178.414062 52.21875 178.785156 C 52.378906 179.15625 52.5 179.539062 52.582031 179.929688 C 52.664062 180.324219 52.707031 180.722656 52.714844 181.128906 C 52.714844 181.21875 52.640625 181.710938 52.632812 181.808594 C 52.570312 182.488281 52.621094 183.164062 52.785156 183.828125 C 52.949219 184.492188 53.214844 185.109375 53.585938 185.683594 C 53.957031 186.257812 54.410156 186.757812 54.949219 187.183594 C 55.484375 187.605469 56.078125 187.929688 56.722656 188.15625 Z M 236.933594 359.257812 L 138.8125 359.257812 L 138.8125 291.742188 C 138.8125 290.335938 138.882812 288.933594 139.023438 287.535156 C 139.160156 286.132812 139.371094 284.746094 139.644531 283.367188 C 139.921875 281.984375 140.261719 280.625 140.671875 279.277344 C 141.082031 277.933594 141.558594 276.609375 142.097656 275.308594 C 142.636719 274.011719 143.238281 272.742188 143.902344 271.5 C 144.566406 270.261719 145.289062 269.054688 146.070312 267.886719 C 146.851562 266.71875 147.691406 265.589844 148.582031 264.5 C 149.476562 263.414062 150.421875 262.375 151.414062 261.378906 C 152.410156 260.382812 153.453125 259.441406 154.539062 258.546875 C 155.628906 257.65625 156.757812 256.820312 157.925781 256.035156 C 159.097656 255.253906 160.300781 254.53125 161.542969 253.867188 C 162.785156 253.203125 164.054688 252.605469 165.355469 252.066406 C 166.652344 251.527344 167.976562 251.050781 169.324219 250.640625 C 170.667969 250.234375 172.03125 249.890625 173.414062 249.613281 C 174.792969 249.339844 176.183594 249.132812 177.582031 248.992188 C 178.984375 248.851562 180.386719 248.78125 181.796875 248.78125 L 193.949219 248.78125 C 195.355469 248.78125 196.757812 248.851562 198.160156 248.992188 C 199.558594 249.132812 200.949219 249.339844 202.332031 249.613281 C 203.710938 249.890625 205.074219 250.234375 206.417969 250.640625 C 207.765625 251.050781 209.089844 251.527344 210.390625 252.066406 C 211.6875 252.605469 212.960938 253.203125 214.199219 253.867188 C 215.441406 254.53125 216.648438 255.253906 217.816406 256.035156 C 218.988281 256.820312 220.117188 257.65625 221.203125 258.546875 C 222.292969 259.441406 223.332031 260.382812 224.328125 261.378906 C 225.324219 262.375 226.265625 263.414062 227.160156 264.5 C 228.054688 265.589844 228.890625 266.71875 229.671875 267.886719 C 230.453125 269.054688 231.179688 270.261719 231.84375 271.5 C 232.507812 272.742188 233.109375 274.011719 233.648438 275.308594 C 234.1875 276.609375 234.660156 277.933594 235.070312 279.277344 C 235.480469 280.625 235.820312 281.984375 236.097656 283.367188 C 236.375 284.746094 236.582031 286.132812 236.71875 287.535156 C 236.859375 288.933594 236.929688 290.335938 236.933594 291.742188 Z M 261.496094 359.257812 L 249.214844 359.257812 L 249.214844 291.742188 C 249.210938 289.933594 249.121094 288.132812 248.941406 286.332031 C 248.761719 284.53125 248.496094 282.746094 248.140625 280.972656 C 247.785156 279.199219 247.347656 277.445312 246.820312 275.714844 C 246.292969 273.984375 245.683594 272.285156 244.988281 270.613281 C 244.296875 268.945312 243.523438 267.3125 242.667969 265.71875 C 241.816406 264.121094 240.886719 262.574219 239.878906 261.070312 C 238.875 259.566406 237.796875 258.117188 236.648438 256.71875 C 235.5 255.320312 234.289062 253.980469 233.007812 252.703125 C 231.730469 251.425781 230.390625 250.210938 228.992188 249.0625 C 227.59375 247.914062 226.140625 246.839844 224.636719 245.835938 C 223.132812 244.828125 221.582031 243.898438 219.988281 243.046875 C 218.390625 242.195312 216.757812 241.421875 215.085938 240.726562 C 213.417969 240.035156 211.714844 239.425781 209.984375 238.898438 C 208.253906 238.371094 206.5 237.933594 204.726562 237.578125 C 202.949219 237.222656 201.164062 236.957031 199.363281 236.777344 C 197.5625 236.597656 195.757812 236.507812 193.949219 236.507812 L 181.796875 236.507812 C 179.984375 236.507812 178.179688 236.597656 176.378906 236.777344 C 174.578125 236.957031 172.792969 237.222656 171.019531 237.578125 C 169.242188 237.933594 167.492188 238.371094 165.757812 238.898438 C 164.027344 239.425781 162.328125 240.035156 160.65625 240.726562 C 158.984375 241.421875 157.351562 242.195312 155.753906 243.046875 C 154.160156 243.898438 152.609375 244.828125 151.105469 245.835938 C 149.601562 246.839844 148.148438 247.914062 146.75 249.0625 C 145.351562 250.210938 144.015625 251.425781 142.734375 252.703125 C 141.457031 253.980469 140.242188 255.320312 139.09375 256.71875 C 137.945312 258.117188 136.867188 259.566406 135.863281 261.070312 C 134.855469 262.574219 133.925781 264.121094 133.074219 265.71875 C 132.21875 267.3125 131.445312 268.945312 130.753906 270.613281 C 130.058594 272.285156 129.449219 273.984375 128.921875 275.714844 C 128.398438 277.445312 127.957031 279.199219 127.601562 280.972656 C 127.246094 282.746094 126.980469 284.53125 126.800781 286.332031 C 126.621094 288.132812 126.53125 289.933594 126.53125 291.742188 L 126.53125 359.257812 L 114.121094 359.257812 L 114.121094 245.332031 L 187.808594 177.347656 L 261.496094 245.332031 Z M 322.902344 359.257812 L 322.902344 290.613281 C 322.898438 290.125 322.84375 289.640625 322.726562 289.164062 C 322.609375 288.6875 322.4375 288.230469 322.210938 287.796875 C 321.984375 287.359375 321.710938 286.957031 321.390625 286.585938 C 321.066406 286.21875 320.703125 285.890625 320.304688 285.609375 C 319.902344 285.324219 319.472656 285.09375 319.019531 284.914062 C 318.5625 284.730469 318.089844 284.609375 317.605469 284.539062 C 317.117188 284.472656 316.628906 284.464844 316.140625 284.515625 C 315.652344 284.5625 315.179688 284.667969 314.714844 284.832031 C 313.980469 285.101562 313.226562 285.296875 312.457031 285.417969 C 311.683594 285.542969 310.90625 285.589844 310.125 285.566406 C 309.34375 285.539062 308.570312 285.4375 307.808594 285.265625 C 307.046875 285.089844 306.308594 284.847656 305.59375 284.53125 C 304.878906 284.214844 304.199219 283.832031 303.558594 283.386719 C 302.914062 282.941406 302.320312 282.4375 301.777344 281.878906 C 301.230469 281.320312 300.742188 280.714844 300.316406 280.058594 C 299.886719 279.40625 299.523438 278.71875 299.226562 277.996094 C 298.929688 277.273438 298.703125 276.527344 298.550781 275.761719 C 298.394531 274.996094 298.316406 274.222656 298.3125 273.441406 C 298.304688 272.660156 298.375 271.882812 298.519531 271.117188 C 298.660156 270.347656 298.878906 269.601562 299.164062 268.875 C 299.453125 268.148438 299.804688 267.453125 300.226562 266.792969 C 300.644531 266.136719 301.125 265.523438 301.660156 264.957031 C 302.199219 264.386719 302.785156 263.878906 303.421875 263.421875 C 304.058594 262.96875 304.730469 262.578125 305.441406 262.253906 C 305.929688 262.023438 306.382812 261.734375 306.792969 261.386719 C 307.203125 261.039062 307.5625 260.640625 307.871094 260.199219 C 308.179688 259.757812 308.425781 259.28125 308.605469 258.773438 C 308.789062 258.265625 308.902344 257.746094 308.945312 257.207031 C 308.992188 256.667969 308.964844 256.136719 308.867188 255.605469 C 308.773438 255.074219 308.609375 254.566406 308.378906 254.078125 C 308.148438 253.589844 307.859375 253.140625 307.507812 252.730469 C 307.160156 252.320312 306.765625 251.960938 306.320312 251.652344 C 305.601562 251.164062 304.921875 250.625 304.28125 250.035156 C 303.640625 249.449219 303.042969 248.816406 302.492188 248.144531 C 301.941406 247.472656 301.441406 246.761719 300.988281 246.019531 C 300.539062 245.273438 300.144531 244.503906 299.804688 243.703125 C 299.460938 242.902344 299.179688 242.082031 298.957031 241.242188 C 298.734375 240.402344 298.570312 239.546875 298.46875 238.683594 C 298.367188 237.820312 298.324219 236.953125 298.347656 236.085938 C 298.367188 235.214844 298.453125 234.351562 298.597656 233.496094 C 298.742188 232.636719 298.945312 231.792969 299.210938 230.964844 C 299.476562 230.136719 299.796875 229.332031 300.175781 228.546875 C 300.558594 227.765625 300.988281 227.015625 301.476562 226.292969 C 301.964844 225.570312 302.5 224.890625 303.082031 224.246094 C 303.667969 223.601562 304.292969 223 304.964844 222.445312 C 305.632812 221.890625 306.339844 221.382812 307.078125 220.929688 C 307.820312 220.472656 308.589844 220.074219 309.390625 219.726562 C 310.1875 219.382812 311.007812 219.097656 311.847656 218.867188 C 312.371094 218.722656 312.863281 218.511719 313.328125 218.234375 C 313.796875 217.957031 314.21875 217.625 314.597656 217.238281 C 314.972656 216.847656 315.296875 216.417969 315.558594 215.945312 C 315.824219 215.472656 316.019531 214.972656 316.152344 214.445312 C 316.285156 213.921875 316.34375 213.386719 316.335938 212.84375 C 316.324219 212.304688 316.246094 211.773438 316.09375 211.25 C 315.945312 210.730469 315.730469 210.238281 315.449219 209.777344 C 315.167969 209.3125 314.832031 208.894531 314.4375 208.519531 C 313.21875 207.371094 312.277344 206.03125 311.613281 204.496094 C 310.953125 202.957031 310.621094 201.355469 310.621094 199.679688 C 310.625 199.050781 310.675781 198.421875 310.777344 197.796875 C 310.878906 197.175781 311.027344 196.5625 311.222656 195.960938 C 311.417969 195.363281 311.65625 194.78125 311.941406 194.214844 C 312.226562 193.652344 312.554688 193.113281 312.921875 192.601562 C 313.292969 192.089844 313.699219 191.605469 314.140625 191.15625 C 314.582031 190.707031 315.058594 190.292969 315.566406 189.914062 C 316.070312 189.539062 316.605469 189.203125 317.164062 188.90625 C 317.722656 188.613281 318.300781 188.359375 318.898438 188.15625 C 319.554688 187.867188 320.148438 187.484375 320.683594 187.007812 C 321.214844 186.53125 321.664062 185.984375 322.023438 185.363281 C 322.382812 184.746094 322.636719 184.085938 322.789062 183.386719 C 322.9375 182.6875 322.976562 181.980469 322.902344 181.269531 C 322.898438 180.867188 322.933594 180.464844 323.007812 180.070312 C 323.082031 179.675781 323.191406 179.289062 323.34375 178.917969 C 323.492188 178.542969 323.679688 178.1875 323.898438 177.851562 C 324.117188 177.511719 324.371094 177.199219 324.652344 176.914062 C 324.933594 176.625 325.242188 176.367188 325.574219 176.140625 C 325.90625 175.914062 326.257812 175.71875 326.628906 175.5625 C 327 175.402344 327.378906 175.28125 327.773438 175.199219 C 328.167969 175.117188 328.566406 175.074219 328.972656 175.066406 C 329.375 175.0625 329.773438 175.097656 330.167969 175.171875 C 330.566406 175.246094 330.949219 175.359375 331.324219 175.507812 C 331.699219 175.65625 332.054688 175.839844 332.390625 176.0625 C 332.730469 176.28125 333.042969 176.53125 333.332031 176.8125 C 333.621094 177.09375 333.878906 177.402344 334.105469 177.734375 C 334.332031 178.066406 334.527344 178.417969 334.6875 178.785156 C 334.84375 179.15625 334.964844 179.539062 335.050781 179.933594 C 335.132812 180.328125 335.175781 180.726562 335.183594 181.128906 C 335.183594 181.21875 335.109375 181.710938 335.101562 181.808594 C 335.039062 182.488281 335.089844 183.164062 335.253906 183.828125 C 335.417969 184.492188 335.683594 185.109375 336.054688 185.683594 C 336.425781 186.257812 336.878906 186.757812 337.417969 187.183594 C 337.953125 187.605469 338.546875 187.929688 339.191406 188.15625 C 339.789062 188.359375 340.367188 188.613281 340.925781 188.90625 C 341.484375 189.203125 342.015625 189.539062 342.523438 189.914062 C 343.027344 190.292969 343.503906 190.707031 343.945312 191.15625 C 344.386719 191.609375 344.792969 192.089844 345.160156 192.601562 C 345.53125 193.117188 345.855469 193.65625 346.140625 194.21875 C 346.425781 194.78125 346.667969 195.363281 346.863281 195.964844 C 347.058594 196.5625 347.207031 197.175781 347.304688 197.800781 C 347.40625 198.421875 347.460938 199.050781 347.464844 199.679688 C 347.464844 201.355469 347.132812 202.957031 346.46875 204.492188 C 345.808594 206.03125 344.867188 207.371094 343.648438 208.519531 C 343.257812 208.894531 342.921875 209.3125 342.640625 209.777344 C 342.359375 210.238281 342.144531 210.730469 341.992188 211.25 C 341.84375 211.773438 341.761719 212.304688 341.753906 212.84375 C 341.742188 213.386719 341.804688 213.921875 341.9375 214.445312 C 342.066406 214.972656 342.265625 215.472656 342.53125 215.945312 C 342.792969 216.417969 343.113281 216.847656 343.492188 217.238281 C 343.871094 217.625 344.292969 217.957031 344.757812 218.234375 C 345.226562 218.511719 345.71875 218.722656 346.242188 218.867188 C 347.082031 219.097656 347.898438 219.382812 348.699219 219.726562 C 349.496094 220.074219 350.265625 220.472656 351.007812 220.929688 C 351.75 221.382812 352.457031 221.890625 353.125 222.445312 C 353.796875 223 354.421875 223.601562 355.007812 224.246094 C 355.589844 224.890625 356.125 225.570312 356.613281 226.292969 C 357.097656 227.015625 357.53125 227.765625 357.910156 228.546875 C 358.292969 229.332031 358.613281 230.136719 358.878906 230.964844 C 359.144531 231.792969 359.347656 232.636719 359.492188 233.496094 C 359.636719 234.351562 359.71875 235.214844 359.742188 236.085938 C 359.761719 236.953125 359.722656 237.820312 359.621094 238.683594 C 359.519531 239.546875 359.355469 240.402344 359.132812 241.242188 C 358.910156 242.082031 358.625 242.902344 358.285156 243.703125 C 357.945312 244.503906 357.550781 245.273438 357.101562 246.019531 C 356.648438 246.761719 356.148438 247.472656 355.597656 248.144531 C 355.046875 248.816406 354.449219 249.449219 353.808594 250.035156 C 353.164062 250.625 352.484375 251.164062 351.769531 251.652344 C 351.324219 251.960938 350.929688 252.320312 350.578125 252.730469 C 350.230469 253.140625 349.941406 253.589844 349.710938 254.078125 C 349.480469 254.566406 349.316406 255.074219 349.21875 255.605469 C 349.125 256.136719 349.097656 256.667969 349.140625 257.207031 C 349.1875 257.746094 349.300781 258.265625 349.484375 258.773438 C 349.664062 259.28125 349.910156 259.757812 350.21875 260.199219 C 350.523438 260.640625 350.882812 261.039062 351.296875 261.386719 C 351.707031 261.734375 352.15625 262.023438 352.644531 262.253906 C 353.707031 262.738281 354.679688 263.363281 355.558594 264.128906 C 356.4375 264.894531 357.195312 265.765625 357.824219 266.75 C 358.453125 267.730469 358.929688 268.78125 359.257812 269.902344 C 359.585938 271.023438 359.746094 272.164062 359.746094 273.332031 C 359.75 273.820312 359.730469 274.3125 359.675781 274.800781 C 359.625 275.289062 359.542969 275.769531 359.429688 276.25 C 359.320312 276.726562 359.179688 277.199219 359.011719 277.660156 C 358.839844 278.121094 358.644531 278.570312 358.421875 279.007812 C 358.199219 279.445312 357.949219 279.867188 357.675781 280.273438 C 357.402344 280.679688 357.101562 281.070312 356.78125 281.441406 C 356.457031 281.808594 356.113281 282.160156 355.75 282.488281 C 355.386719 282.816406 355.003906 283.125 354.601562 283.40625 C 354.199219 283.6875 353.78125 283.945312 353.347656 284.175781 C 352.914062 284.410156 352.46875 284.613281 352.011719 284.789062 C 351.550781 284.96875 351.085938 285.117188 350.609375 285.238281 C 350.132812 285.359375 349.652344 285.449219 349.164062 285.511719 C 348.675781 285.574219 348.1875 285.605469 347.695312 285.609375 C 347.203125 285.609375 346.714844 285.582031 346.226562 285.527344 C 345.738281 285.46875 345.257812 285.382812 344.78125 285.265625 C 344.300781 285.148438 343.832031 285.003906 343.375 284.832031 C 342.910156 284.667969 342.433594 284.5625 341.945312 284.511719 C 341.457031 284.460938 340.96875 284.472656 340.484375 284.539062 C 339.996094 284.605469 339.523438 284.730469 339.066406 284.910156 C 338.609375 285.089844 338.183594 285.320312 337.78125 285.605469 C 337.378906 285.886719 337.015625 286.214844 336.695312 286.585938 C 336.371094 286.953125 336.097656 287.355469 335.871094 287.792969 C 335.644531 288.230469 335.472656 288.683594 335.355469 289.164062 C 335.242188 289.640625 335.183594 290.125 335.183594 290.613281 L 335.183594 359.257812 Z M 322.902344 359.257812 " fill-opacity="1" fill-rule="nonzero"/></g><path fill="#ffffff" d="M 71.136719 64.65625 L 95.699219 64.65625 C 96.101562 64.65625 96.5 64.617188 96.894531 64.539062 C 97.292969 64.460938 97.675781 64.34375 98.046875 64.1875 C 98.421875 64.035156 98.773438 63.847656 99.109375 63.621094 C 99.445312 63.398438 99.753906 63.144531 100.039062 62.859375 C 100.324219 62.574219 100.578125 62.261719 100.804688 61.929688 C 101.027344 61.59375 101.214844 61.238281 101.371094 60.867188 C 101.523438 60.496094 101.640625 60.113281 101.71875 59.714844 C 101.800781 59.320312 101.839844 58.921875 101.839844 58.519531 L 101.839844 33.96875 C 101.839844 33.566406 101.800781 33.167969 101.71875 32.769531 C 101.640625 32.375 101.523438 31.992188 101.371094 31.621094 C 101.214844 31.246094 101.027344 30.894531 100.804688 30.558594 C 100.578125 30.222656 100.324219 29.914062 100.039062 29.628906 C 99.753906 29.34375 99.445312 29.089844 99.109375 28.867188 C 98.773438 28.640625 98.421875 28.453125 98.046875 28.296875 C 97.675781 28.144531 97.292969 28.027344 96.894531 27.949219 C 96.5 27.871094 96.101562 27.832031 95.699219 27.832031 L 71.136719 27.832031 C 70.730469 27.832031 70.332031 27.871094 69.9375 27.949219 C 69.542969 28.027344 69.15625 28.144531 68.785156 28.296875 C 68.414062 28.453125 68.058594 28.640625 67.722656 28.867188 C 67.386719 29.089844 67.078125 29.34375 66.792969 29.628906 C 66.507812 29.914062 66.253906 30.222656 66.03125 30.558594 C 65.804688 30.894531 65.617188 31.246094 65.460938 31.621094 C 65.308594 31.992188 65.191406 32.375 65.113281 32.769531 C 65.035156 33.167969 64.996094 33.566406 64.996094 33.96875 L 64.996094 58.519531 C 64.996094 58.921875 65.035156 59.320312 65.113281 59.714844 C 65.191406 60.113281 65.308594 60.496094 65.460938 60.867188 C 65.617188 61.238281 65.804688 61.59375 66.03125 61.929688 C 66.253906 62.261719 66.507812 62.574219 66.792969 62.859375 C 67.078125 63.144531 67.386719 63.398438 67.722656 63.621094 C 68.058594 63.847656 68.414062 64.035156 68.785156 64.1875 C 69.15625 64.34375 69.542969 64.460938 69.9375 64.539062 C 70.332031 64.617188 70.730469 64.65625 71.136719 64.65625 Z M 77.277344 40.105469 L 89.558594 40.105469 L 89.558594 52.382812 L 77.277344 52.382812 Z M 77.277344 40.105469 " fill-opacity="1" fill-rule="nonzero"/><path fill="#ffffff" d="M 138.683594 64.65625 L 163.246094 64.65625 C 163.648438 64.65625 164.046875 64.617188 164.441406 64.539062 C 164.839844 64.460938 165.222656 64.34375 165.59375 64.1875 C 165.96875 64.035156 166.320312 63.847656 166.65625 63.621094 C 166.992188 63.398438 167.300781 63.144531 167.585938 62.859375 C 167.871094 62.574219 168.125 62.261719 168.351562 61.929688 C 168.574219 61.59375 168.761719 61.238281 168.917969 60.867188 C 169.070312 60.496094 169.1875 60.113281 169.265625 59.714844 C 169.347656 59.320312 169.386719 58.921875 169.386719 58.519531 L 169.386719 33.96875 C 169.386719 33.566406 169.347656 33.167969 169.265625 32.769531 C 169.1875 32.375 169.070312 31.992188 168.917969 31.621094 C 168.761719 31.246094 168.574219 30.894531 168.351562 30.558594 C 168.125 30.222656 167.871094 29.914062 167.585938 29.628906 C 167.300781 29.34375 166.992188 29.089844 166.65625 28.867188 C 166.320312 28.640625 165.96875 28.453125 165.59375 28.296875 C 165.222656 28.144531 164.839844 28.027344 164.441406 27.949219 C 164.046875 27.871094 163.648438 27.832031 163.246094 27.832031 L 138.683594 27.832031 C 138.277344 27.832031 137.878906 27.871094 137.484375 27.949219 C 137.089844 28.027344 136.703125 28.144531 136.332031 28.296875 C 135.960938 28.453125 135.605469 28.640625 135.269531 28.867188 C 134.933594 29.089844 134.625 29.34375 134.339844 29.628906 C 134.054688 29.914062 133.800781 30.222656 133.578125 30.558594 C 133.351562 30.894531 133.164062 31.246094 133.007812 31.621094 C 132.855469 31.992188 132.738281 32.375 132.660156 32.769531 C 132.582031 33.167969 132.542969 33.566406 132.542969 33.96875 L 132.542969 58.519531 C 132.542969 58.921875 132.582031 59.320312 132.660156 59.714844 C 132.738281 60.113281 132.855469 60.496094 133.007812 60.867188 C 133.164062 61.238281 133.351562 61.59375 133.578125 61.929688 C 133.800781 62.261719 134.054688 62.574219 134.339844 62.859375 C 134.625 63.144531 134.933594 63.398438 135.269531 63.621094 C 135.605469 63.847656 135.960938 64.035156 136.332031 64.1875 C 136.703125 64.34375 137.089844 64.460938 137.484375 64.539062 C 137.878906 64.617188 138.277344 64.65625 138.683594 64.65625 Z M 144.824219 40.105469 L 157.105469 40.105469 L 157.105469 52.382812 L 144.824219 52.382812 Z M 144.824219 40.105469 " fill-opacity="1" fill-rule="nonzero"/><path fill="#ffffff" d="M 64.996094 107.617188 C 64.996094 108.023438 65.035156 108.421875 65.113281 108.816406 C 65.191406 109.210938 65.308594 109.59375 65.460938 109.96875 C 65.617188 110.339844 65.804688 110.695312 66.03125 111.027344 C 66.253906 111.363281 66.507812 111.671875 66.792969 111.957031 C 67.078125 112.242188 67.386719 112.496094 67.722656 112.722656 C 68.058594 112.945312 68.414062 113.136719 68.785156 113.289062 C 69.15625 113.441406 69.542969 113.558594 69.9375 113.636719 C 70.332031 113.71875 70.730469 113.757812 71.136719 113.757812 L 95.699219 113.757812 C 96.101562 113.757812 96.5 113.71875 96.894531 113.636719 C 97.292969 113.558594 97.675781 113.441406 98.046875 113.289062 C 98.421875 113.136719 98.773438 112.945312 99.109375 112.722656 C 99.445312 112.496094 99.753906 112.242188 100.039062 111.957031 C 100.324219 111.671875 100.578125 111.363281 100.804688 111.027344 C 101.027344 110.695312 101.214844 110.339844 101.371094 109.96875 C 101.523438 109.59375 101.640625 109.210938 101.71875 108.816406 C 101.800781 108.421875 101.839844 108.023438 101.839844 107.617188 L 101.839844 83.070312 C 101.839844 82.664062 101.800781 82.265625 101.71875 81.871094 C 101.640625 81.476562 101.523438 81.09375 101.371094 80.71875 C 101.214844 80.347656 101.027344 79.992188 100.804688 79.660156 C 100.578125 79.324219 100.324219 79.015625 100.039062 78.730469 C 99.753906 78.445312 99.445312 78.191406 99.109375 77.964844 C 98.773438 77.742188 98.421875 77.550781 98.046875 77.398438 C 97.675781 77.246094 97.292969 77.128906 96.894531 77.050781 C 96.5 76.96875 96.101562 76.929688 95.699219 76.929688 L 71.136719 76.929688 C 70.730469 76.929688 70.332031 76.96875 69.9375 77.050781 C 69.542969 77.128906 69.15625 77.246094 68.785156 77.398438 C 68.414062 77.550781 68.058594 77.742188 67.722656 77.964844 C 67.386719 78.191406 67.078125 78.445312 66.792969 78.730469 C 66.507812 79.015625 66.253906 79.324219 66.03125 79.660156 C 65.804688 79.992188 65.617188 80.347656 65.460938 80.71875 C 65.308594 81.09375 65.191406 81.476562 65.113281 81.871094 C 65.035156 82.265625 64.996094 82.664062 64.996094 83.070312 Z M 77.277344 89.207031 L 89.558594 89.207031 L 89.558594 101.480469 L 77.277344 101.480469 Z M 77.277344 89.207031 " fill-opacity="1" fill-rule="nonzero"/><path fill="#ffffff" d="M 132.542969 107.617188 C 132.542969 108.023438 132.582031 108.421875 132.660156 108.816406 C 132.738281 109.210938 132.855469 109.59375 133.007812 109.96875 C 133.164062 110.339844 133.351562 110.695312 133.578125 111.027344 C 133.800781 111.363281 134.054688 111.671875 134.339844 111.957031 C 134.625 112.242188 134.933594 112.496094 135.269531 112.722656 C 135.605469 112.945312 135.960938 113.136719 136.332031 113.289062 C 136.703125 113.441406 137.089844 113.558594 137.484375 113.636719 C 137.878906 113.71875 138.277344 113.757812 138.683594 113.757812 L 163.246094 113.757812 C 163.648438 113.757812 164.046875 113.71875 164.441406 113.636719 C 164.839844 113.558594 165.222656 113.441406 165.59375 113.289062 C 165.96875 113.136719 166.320312 112.945312 166.65625 112.722656 C 166.992188 112.496094 167.300781 112.242188 167.585938 111.957031 C 167.871094 111.671875 168.125 111.363281 168.351562 111.027344 C 168.574219 110.695312 168.761719 110.339844 168.917969 109.96875 C 169.070312 109.59375 169.1875 109.210938 169.265625 108.816406 C 169.347656 108.421875 169.386719 108.023438 169.386719 107.617188 L 169.386719 83.070312 C 169.386719 82.664062 169.347656 82.265625 169.265625 81.871094 C 169.1875 81.476562 169.070312 81.09375 168.917969 80.71875 C 168.761719 80.347656 168.574219 79.992188 168.351562 79.660156 C 168.125 79.324219 167.871094 79.015625 167.585938 78.730469 C 167.300781 78.445312 166.992188 78.191406 166.65625 77.964844 C 166.320312 77.742188 165.96875 77.550781 165.59375 77.398438 C 165.222656 77.246094 164.839844 77.128906 164.441406 77.050781 C 164.046875 76.96875 163.648438 76.929688 163.246094 76.929688 L 138.683594 76.929688 C 138.277344 76.929688 137.878906 76.96875 137.484375 77.050781 C 137.089844 77.128906 136.703125 77.246094 136.332031 77.398438 C 135.960938 77.550781 135.605469 77.742188 135.269531 77.964844 C 134.933594 78.191406 134.625 78.445312 134.339844 78.730469 C 134.054688 79.015625 133.800781 79.324219 133.578125 79.660156 C 133.351562 79.992188 133.164062 80.347656 133.007812 80.71875 C 132.855469 81.09375 132.738281 81.476562 132.660156 81.871094 C 132.582031 82.265625 132.542969 82.664062 132.542969 83.070312 Z M 144.824219 89.207031 L 157.105469 89.207031 L 157.105469 101.480469 L 144.824219 101.480469 Z M 144.824219 89.207031 " fill-opacity="1" fill-rule="nonzero"/><path fill="#ffffff" d="M 101.839844 132.167969 C 101.839844 131.765625 101.800781 131.367188 101.71875 130.972656 C 101.640625 130.574219 101.523438 130.191406 101.371094 129.820312 C 101.214844 129.449219 101.027344 129.09375 100.804688 128.757812 C 100.578125 128.425781 100.324219 128.113281 100.039062 127.828125 C 99.753906 127.542969 99.445312 127.289062 99.109375 127.066406 C 98.773438 126.839844 98.421875 126.652344 98.046875 126.5 C 97.675781 126.34375 97.292969 126.226562 96.894531 126.148438 C 96.5 126.070312 96.101562 126.03125 95.699219 126.03125 L 71.136719 126.03125 C 70.730469 126.03125 70.332031 126.070312 69.9375 126.148438 C 69.542969 126.226562 69.15625 126.34375 68.785156 126.5 C 68.414062 126.652344 68.058594 126.839844 67.722656 127.066406 C 67.386719 127.289062 67.078125 127.542969 66.792969 127.828125 C 66.507812 128.113281 66.253906 128.425781 66.03125 128.757812 C 65.804688 129.09375 65.617188 129.449219 65.460938 129.820312 C 65.308594 130.191406 65.191406 130.574219 65.113281 130.972656 C 65.035156 131.367188 64.996094 131.765625 64.996094 132.167969 L 64.996094 156.71875 C 64.996094 157.121094 65.035156 157.519531 65.113281 157.917969 C 65.191406 158.3125 65.308594 158.695312 65.460938 159.066406 C 65.617188 159.441406 65.804688 159.792969 66.03125 160.128906 C 66.253906 160.464844 66.507812 160.773438 66.792969 161.058594 C 67.078125 161.34375 67.386719 161.597656 67.722656 161.820312 C 68.058594 162.046875 68.414062 162.234375 68.785156 162.390625 C 69.15625 162.542969 69.542969 162.660156 69.9375 162.738281 C 70.332031 162.816406 70.730469 162.855469 71.136719 162.855469 L 95.699219 162.855469 C 96.101562 162.855469 96.5 162.816406 96.894531 162.738281 C 97.292969 162.660156 97.675781 162.542969 98.046875 162.390625 C 98.421875 162.234375 98.773438 162.046875 99.109375 161.820312 C 99.445312 161.597656 99.753906 161.34375 100.039062 161.058594 C 100.324219 160.773438 100.578125 160.464844 100.804688 160.128906 C 101.027344 159.792969 101.214844 159.441406 101.371094 159.066406 C 101.523438 158.695312 101.640625 158.3125 101.71875 157.917969 C 101.800781 157.519531 101.839844 157.121094 101.839844 156.71875 Z M 89.558594 150.582031 L 77.277344 150.582031 L 77.277344 138.304688 L 89.558594 138.304688 Z M 89.558594 150.582031 " fill-opacity="1" fill-rule="nonzero"/><path fill="#ffffff" d="M 132.542969 156.71875 C 132.542969 157.121094 132.582031 157.519531 132.660156 157.917969 C 132.738281 158.3125 132.855469 158.695312 133.007812 159.066406 C 133.164062 159.441406 133.351562 159.792969 133.578125 160.128906 C 133.800781 160.464844 134.054688 160.773438 134.339844 161.058594 C 134.625 161.34375 134.933594 161.597656 135.269531 161.820312 C 135.605469 162.046875 135.960938 162.234375 136.332031 162.390625 C 136.703125 162.542969 137.089844 162.660156 137.484375 162.738281 C 137.878906 162.816406 138.277344 162.855469 138.683594 162.855469 L 163.246094 162.855469 C 163.648438 162.855469 164.046875 162.816406 164.441406 162.738281 C 164.839844 162.660156 165.222656 162.542969 165.59375 162.390625 C 165.96875 162.234375 166.320312 162.046875 166.65625 161.820312 C 166.992188 161.597656 167.300781 161.34375 167.585938 161.058594 C 167.871094 160.773438 168.125 160.464844 168.351562 160.128906 C 168.574219 159.792969 168.761719 159.441406 168.917969 159.066406 C 169.070312 158.695312 169.1875 158.3125 169.265625 157.917969 C 169.347656 157.519531 169.386719 157.121094 169.386719 156.71875 L 169.386719 132.167969 C 169.386719 131.765625 169.347656 131.367188 169.265625 130.972656 C 169.1875 130.574219 169.070312 130.191406 168.917969 129.820312 C 168.761719 129.449219 168.574219 129.09375 168.351562 128.757812 C 168.125 128.425781 167.871094 128.113281 167.585938 127.828125 C 167.300781 127.542969 166.992188 127.289062 166.65625 127.066406 C 166.320312 126.839844 165.96875 126.652344 165.59375 126.5 C 165.222656 126.34375 164.839844 126.226562 164.441406 126.148438 C 164.046875 126.070312 163.648438 126.03125 163.246094 126.03125 L 138.683594 126.03125 C 138.277344 126.03125 137.878906 126.070312 137.484375 126.148438 C 137.089844 126.226562 136.703125 126.34375 136.332031 126.5 C 135.960938 126.652344 135.605469 126.839844 135.269531 127.066406 C 134.933594 127.289062 134.625 127.542969 134.339844 127.828125 C 134.054688 128.113281 133.800781 128.425781 133.578125 128.757812 C 133.351562 129.09375 133.164062 129.449219 133.007812 129.820312 C 132.855469 130.191406 132.738281 130.574219 132.660156 130.972656 C 132.582031 131.367188 132.542969 131.765625 132.542969 132.167969 Z M 144.824219 138.304688 L 157.105469 138.304688 L 157.105469 150.582031 L 144.824219 150.582031 Z M 144.824219 138.304688 " fill-opacity="1" fill-rule="nonzero"/><path fill="#ffffff" d="M 243.074219 95.34375 C 243.074219 94.941406 243.035156 94.542969 242.953125 94.144531 C 242.875 93.75 242.757812 93.367188 242.605469 92.996094 C 242.449219 92.621094 242.261719 92.269531 242.039062 91.933594 C 241.8125 91.597656 241.558594 91.289062 241.273438 91.003906 C 240.988281 90.71875 240.679688 90.464844 240.34375 90.242188 C 240.007812 90.015625 239.65625 89.828125 239.28125 89.671875 C 238.910156 89.519531 238.527344 89.402344 238.128906 89.324219 C 237.734375 89.246094 237.335938 89.207031 236.933594 89.207031 L 212.371094 89.207031 C 211.964844 89.207031 211.566406 89.246094 211.171875 89.324219 C 210.777344 89.402344 210.390625 89.519531 210.019531 89.671875 C 209.648438 89.828125 209.292969 90.015625 208.957031 90.242188 C 208.621094 90.464844 208.3125 90.71875 208.027344 91.003906 C 207.742188 91.289062 207.488281 91.597656 207.265625 91.933594 C 207.039062 92.269531 206.851562 92.621094 206.695312 92.996094 C 206.542969 93.367188 206.425781 93.75 206.347656 94.144531 C 206.269531 94.542969 206.230469 94.941406 206.230469 95.34375 L 206.230469 119.894531 C 206.230469 120.296875 206.269531 120.695312 206.347656 121.089844 C 206.425781 121.488281 206.542969 121.871094 206.695312 122.242188 C 206.851562 122.613281 207.039062 122.96875 207.265625 123.304688 C 207.488281 123.636719 207.742188 123.949219 208.027344 124.234375 C 208.3125 124.519531 208.621094 124.773438 208.957031 124.996094 C 209.292969 125.222656 209.648438 125.410156 210.019531 125.5625 C 210.390625 125.71875 210.777344 125.835938 211.171875 125.914062 C 211.566406 125.992188 211.964844 126.03125 212.371094 126.03125 L 236.933594 126.03125 C 237.335938 126.03125 237.734375 125.992188 238.128906 125.914062 C 238.527344 125.835938 238.910156 125.71875 239.28125 125.5625 C 239.65625 125.410156 240.007812 125.222656 240.34375 124.996094 C 240.679688 124.773438 240.988281 124.519531 241.273438 124.234375 C 241.558594 123.949219 241.8125 123.636719 242.039062 123.304688 C 242.261719 122.96875 242.449219 122.613281 242.605469 122.242188 C 242.757812 121.871094 242.875 121.488281 242.953125 121.089844 C 243.035156 120.695312 243.074219 120.296875 243.074219 119.894531 Z M 230.792969 113.757812 L 218.511719 113.757812 L 218.511719 101.480469 L 230.792969 101.480469 Z M 230.792969 113.757812 " fill-opacity="1" fill-rule="nonzero"/><path fill="#ffffff" d="M 279.917969 126.03125 L 304.480469 126.03125 C 304.882812 126.03125 305.28125 125.992188 305.675781 125.914062 C 306.070312 125.835938 306.457031 125.71875 306.828125 125.5625 C 307.203125 125.410156 307.554688 125.222656 307.890625 124.996094 C 308.226562 124.773438 308.535156 124.519531 308.820312 124.234375 C 309.105469 123.949219 309.359375 123.636719 309.585938 123.304688 C 309.808594 122.96875 309.996094 122.613281 310.152344 122.242188 C 310.304688 121.871094 310.421875 121.488281 310.5 121.089844 C 310.582031 120.695312 310.621094 120.296875 310.621094 119.894531 L 310.621094 95.34375 C 310.621094 94.941406 310.582031 94.542969 310.5 94.144531 C 310.421875 93.75 310.304688 93.367188 310.152344 92.996094 C 309.996094 92.621094 309.808594 92.269531 309.585938 91.933594 C 309.359375 91.597656 309.105469 91.289062 308.820312 91.003906 C 308.535156 90.71875 308.226562 90.464844 307.890625 90.242188 C 307.554688 90.015625 307.203125 89.828125 306.828125 89.671875 C 306.457031 89.519531 306.070312 89.402344 305.675781 89.324219 C 305.28125 89.246094 304.882812 89.207031 304.480469 89.207031 L 279.917969 89.207031 C 279.511719 89.207031 279.113281 89.246094 278.71875 89.324219 C 278.324219 89.402344 277.9375 89.519531 277.566406 89.671875 C 277.195312 89.828125 276.839844 90.015625 276.503906 90.242188 C 276.167969 90.464844 275.859375 90.71875 275.574219 91.003906 C 275.289062 91.289062 275.035156 91.597656 274.8125 91.933594 C 274.585938 92.269531 274.398438 92.621094 274.242188 92.996094 C 274.089844 93.367188 273.972656 93.75 273.894531 94.144531 C 273.816406 94.542969 273.777344 94.941406 273.777344 95.34375 L 273.777344 119.894531 C 273.777344 120.296875 273.816406 120.695312 273.894531 121.089844 C 273.972656 121.488281 274.089844 121.871094 274.242188 122.242188 C 274.398438 122.613281 274.585938 122.96875 274.8125 123.304688 C 275.035156 123.636719 275.289062 123.949219 275.574219 124.234375 C 275.859375 124.519531 276.167969 124.773438 276.503906 124.996094 C 276.839844 125.222656 277.195312 125.410156 277.566406 125.5625 C 277.9375 125.71875 278.324219 125.835938 278.71875 125.914062 C 279.113281 125.992188 279.511719 126.03125 279.917969 126.03125 Z M 286.058594 101.480469 L 298.339844 101.480469 L 298.339844 113.757812 L 286.058594 113.757812 Z M 286.058594 101.480469 " fill-opacity="1" fill-rule="nonzero"/><path fill="#ffffff" d="M 236.933594 132.167969 L 212.371094 132.167969 C 211.964844 132.167969 211.566406 132.207031 211.171875 132.285156 C 210.777344 132.367188 210.390625 132.480469 210.019531 132.636719 C 209.648438 132.789062 209.292969 132.980469 208.957031 133.203125 C 208.621094 133.425781 208.3125 133.679688 208.027344 133.964844 C 207.742188 134.25 207.488281 134.5625 207.265625 134.894531 C 207.039062 135.230469 206.851562 135.585938 206.695312 135.957031 C 206.542969 136.328125 206.425781 136.714844 206.347656 137.109375 C 206.269531 137.503906 206.230469 137.902344 206.230469 138.304688 L 206.230469 162.855469 C 206.230469 163.257812 206.269531 163.660156 206.347656 164.054688 C 206.425781 164.449219 206.542969 164.832031 206.695312 165.203125 C 206.851562 165.578125 207.039062 165.929688 207.265625 166.265625 C 207.488281 166.601562 207.742188 166.910156 208.027344 167.195312 C 208.3125 167.480469 208.621094 167.734375 208.957031 167.960938 C 209.292969 168.183594 209.648438 168.371094 210.019531 168.527344 C 210.390625 168.679688 210.777344 168.796875 211.171875 168.875 C 211.566406 168.953125 211.964844 168.992188 212.371094 168.992188 L 236.933594 168.992188 C 237.335938 168.992188 237.734375 168.953125 238.128906 168.875 C 238.527344 168.796875 238.910156 168.679688 239.28125 168.527344 C 239.65625 168.371094 240.007812 168.183594 240.34375 167.960938 C 240.679688 167.734375 240.988281 167.480469 241.273438 167.195312 C 241.558594 166.910156 241.8125 166.601562 242.039062 166.265625 C 242.261719 165.929688 242.449219 165.578125 242.605469 165.203125 C 242.757812 164.832031 242.875 164.449219 242.953125 164.054688 C 243.035156 163.660156 243.074219 163.257812 243.074219 162.855469 L 243.074219 138.304688 C 243.074219 137.902344 243.035156 137.503906 242.953125 137.109375 C 242.875 136.714844 242.757812 136.328125 242.605469 135.957031 C 242.449219 135.585938 242.261719 135.230469 242.039062 134.894531 C 241.8125 134.5625 241.558594 134.25 241.273438 133.964844 C 240.988281 133.679688 240.679688 133.425781 240.34375 133.203125 C 240.007812 132.980469 239.65625 132.789062 239.28125 132.636719 C 238.910156 132.480469 238.527344 132.367188 238.128906 132.285156 C 237.734375 132.207031 237.335938 132.167969 236.933594 132.167969 Z M 230.792969 156.71875 L 218.511719 156.71875 L 218.511719 144.445312 L 230.792969 144.445312 Z M 230.792969 156.71875 " fill-opacity="1" fill-rule="nonzero"/><path fill="#ffffff" d="M 310.621094 162.855469 L 310.621094 138.304688 C 310.621094 137.902344 310.582031 137.503906 310.5 137.109375 C 310.421875 136.714844 310.304688 136.328125 310.152344 135.957031 C 309.996094 135.585938 309.808594 135.230469 309.585938 134.894531 C 309.359375 134.5625 309.105469 134.25 308.820312 133.964844 C 308.535156 133.679688 308.226562 133.425781 307.890625 133.203125 C 307.554688 132.980469 307.203125 132.789062 306.828125 132.636719 C 306.457031 132.480469 306.070312 132.367188 305.675781 132.285156 C 305.28125 132.207031 304.882812 132.167969 304.480469 132.167969 L 279.917969 132.167969 C 279.511719 132.167969 279.113281 132.207031 278.71875 132.285156 C 278.324219 132.367188 277.9375 132.480469 277.566406 132.636719 C 277.195312 132.789062 276.839844 132.980469 276.503906 133.203125 C 276.167969 133.425781 275.859375 133.679688 275.574219 133.964844 C 275.289062 134.25 275.035156 134.5625 274.8125 134.894531 C 274.585938 135.230469 274.398438 135.585938 274.242188 135.957031 C 274.089844 136.328125 273.972656 136.714844 273.894531 137.109375 C 273.816406 137.503906 273.777344 137.902344 273.777344 138.304688 L 273.777344 162.855469 C 273.777344 163.257812 273.816406 163.660156 273.894531 164.054688 C 273.972656 164.449219 274.089844 164.832031 274.242188 165.203125 C 274.398438 165.578125 274.585938 165.929688 274.8125 166.265625 C 275.035156 166.601562 275.289062 166.910156 275.574219 167.195312 C 275.859375 167.480469 276.167969 167.734375 276.503906 167.960938 C 276.839844 168.183594 277.195312 168.371094 277.566406 168.527344 C 277.9375 168.679688 278.324219 168.796875 278.71875 168.875 C 279.113281 168.953125 279.511719 168.992188 279.917969 168.992188 L 304.480469 168.992188 C 304.882812 168.992188 305.28125 168.953125 305.675781 168.875 C 306.070312 168.796875 306.457031 168.679688 306.828125 168.527344 C 307.203125 168.371094 307.554688 168.183594 307.890625 167.960938 C 308.226562 167.734375 308.535156 167.480469 308.820312 167.195312 C 309.105469 166.910156 309.359375 166.601562 309.585938 166.265625 C 309.808594 165.929688 309.996094 165.578125 310.152344 165.203125 C 310.304688 164.832031 310.421875 164.449219 310.5 164.054688 C 310.582031 163.660156 310.621094 163.257812 310.621094 162.855469 Z M 298.339844 156.71875 L 286.058594 156.71875 L 286.058594 144.445312 L 298.339844 144.445312 Z M 298.339844 156.71875 " fill-opacity="1" fill-rule="nonzero"/></svg>