<svg xmlns="http://www.w3.org/2000/svg" xmlns:xlink="http://www.w3.org/1999/xlink" width="500" zoomAndPan="magnify" viewBox="0 0 375 374.999991" height="500" preserveAspectRatio="xMidYMid meet" version="1.0"><path fill="#ffffff" d="M 216.796875 23.4375 L 158.203125 23.4375 C 154.980469 23.4375 152.34375 26.074219 152.34375 29.296875 C 152.34375 32.519531 154.980469 35.15625 158.203125 35.15625 L 216.796875 35.15625 C 220.019531 35.15625 222.65625 32.519531 222.65625 29.296875 C 222.65625 26.074219 220.019531 23.4375 216.796875 23.4375 Z M 216.796875 23.4375 " fill-opacity="1" fill-rule="nonzero"/><path fill="#ffffff" d="M 216.796875 46.875 L 158.203125 46.875 C 154.980469 46.875 152.34375 49.511719 152.34375 52.734375 C 152.34375 55.957031 154.980469 58.59375 158.203125 58.59375 L 216.796875 58.59375 C 220.019531 58.59375 222.65625 55.957031 222.65625 52.734375 C 222.65625 49.511719 220.019531 46.875 216.796875 46.875 Z M 216.796875 46.875 " fill-opacity="1" fill-rule="nonzero"/><path fill="#ffffff" d="M 216.796875 70.3125 L 158.203125 70.3125 C 154.980469 70.3125 152.34375 72.949219 152.34375 76.171875 C 152.34375 79.394531 154.980469 82.03125 158.203125 82.03125 L 216.796875 82.03125 C 220.019531 82.03125 222.65625 79.394531 222.65625 76.171875 C 222.65625 72.949219 220.019531 70.3125 216.796875 70.3125 Z M 216.796875 70.3125 " fill-opacity="1" fill-rule="nonzero"/><path fill="#ffffff" d="M 216.796875 93.75 L 158.203125 93.75 C 154.980469 93.75 152.34375 96.386719 152.34375 99.609375 C 152.34375 102.832031 154.980469 105.46875 158.203125 105.46875 L 216.796875 105.46875 C 220.019531 105.46875 222.65625 102.832031 222.65625 99.609375 C 222.65625 96.386719 220.019531 93.75 216.796875 93.75 Z M 216.796875 93.75 " fill-opacity="1" fill-rule="nonzero"/><path fill="#ffffff" d="M 216.796875 117.1875 L 158.203125 117.1875 C 154.980469 117.1875 152.34375 119.824219 152.34375 123.046875 C 152.34375 126.269531 154.980469 128.90625 158.203125 128.90625 L 216.796875 128.90625 C 220.019531 128.90625 222.65625 126.269531 222.65625 123.046875 C 222.65625 119.824219 220.019531 117.1875 216.796875 117.1875 Z M 216.796875 117.1875 " fill-opacity="1" fill-rule="nonzero"/><path fill="#ffffff" d="M 216.796875 140.625 L 158.203125 140.625 C 154.980469 140.625 152.34375 143.261719 152.34375 146.484375 C 152.34375 149.707031 154.980469 152.34375 158.203125 152.34375 L 216.796875 152.34375 C 220.019531 152.34375 222.65625 149.707031 222.65625 146.484375 C 222.65625 143.261719 220.019531 140.625 216.796875 140.625 Z M 216.796875 140.625 " fill-opacity="1" fill-rule="nonzero"/><path fill="#ffffff" d="M 216.796875 164.0625 L 158.203125 164.0625 C 154.980469 164.0625 152.34375 166.699219 152.34375 169.921875 C 152.34375 173.144531 154.980469 175.78125 158.203125 175.78125 L 216.796875 175.78125 C 220.019531 175.78125 222.65625 173.144531 222.65625 169.921875 C 222.65625 166.699219 220.019531 164.0625 216.796875 164.0625 Z M 216.796875 164.0625 " fill-opacity="1" fill-rule="nonzero"/><path fill="#ffffff" d="M 216.796875 187.5 L 158.203125 187.5 C 154.980469 187.5 152.34375 190.136719 152.34375 193.359375 C 152.34375 196.582031 154.980469 199.21875 158.203125 199.21875 L 216.796875 199.21875 C 220.019531 199.21875 222.65625 196.582031 222.65625 193.359375 C 222.65625 190.136719 220.019531 187.5 216.796875 187.5 Z M 216.796875 187.5 " fill-opacity="1" fill-rule="nonzero"/><path fill="#ffffff" d="M 67.382812 158.203125 C 67.382812 154.980469 64.746094 152.34375 61.523438 152.34375 C 58.300781 152.34375 55.664062 154.980469 55.664062 158.203125 L 55.664062 169.921875 C 55.664062 173.144531 58.300781 175.78125 61.523438 175.78125 C 64.746094 175.78125 67.382812 173.144531 67.382812 169.921875 Z M 67.382812 158.203125 " fill-opacity="1" fill-rule="nonzero"/><path fill="#ffffff" d="M 90.820312 158.203125 C 90.820312 154.980469 88.183594 152.34375 84.960938 152.34375 C 81.738281 152.34375 79.101562 154.980469 79.101562 158.203125 L 79.101562 169.921875 C 79.101562 173.144531 81.738281 175.78125 84.960938 175.78125 C 88.183594 175.78125 90.820312 173.144531 90.820312 169.921875 Z M 90.820312 158.203125 " fill-opacity="1" fill-rule="nonzero"/><path fill="#ffffff" d="M 114.257812 158.203125 C 114.257812 154.980469 111.621094 152.34375 108.398438 152.34375 C 105.175781 152.34375 102.539062 154.980469 102.539062 158.203125 L 102.539062 169.921875 C 102.539062 173.144531 105.175781 175.78125 108.398438 175.78125 C 111.621094 175.78125 114.257812 173.144531 114.257812 169.921875 Z M 114.257812 158.203125 " fill-opacity="1" fill-rule="nonzero"/><path fill="#ffffff" d="M 67.382812 193.359375 C 67.382812 190.136719 64.746094 187.5 61.523438 187.5 C 58.300781 187.5 55.664062 190.136719 55.664062 193.359375 L 55.664062 205.078125 C 55.664062 208.300781 58.300781 210.9375 61.523438 210.9375 C 64.746094 210.9375 67.382812 208.300781 67.382812 205.078125 Z M 67.382812 193.359375 " fill-opacity="1" fill-rule="nonzero"/><path fill="#ffffff" d="M 90.820312 193.359375 C 90.820312 190.136719 88.183594 187.5 84.960938 187.5 C 81.738281 187.5 79.101562 190.136719 79.101562 193.359375 L 79.101562 205.078125 C 79.101562 208.300781 81.738281 210.9375 84.960938 210.9375 C 88.183594 210.9375 90.820312 208.300781 90.820312 205.078125 Z M 90.820312 193.359375 " fill-opacity="1" fill-rule="nonzero"/><path fill="#ffffff" d="M 114.257812 193.359375 C 114.257812 190.136719 111.621094 187.5 108.398438 187.5 C 105.175781 187.5 102.539062 190.136719 102.539062 193.359375 L 102.539062 205.078125 C 102.539062 208.300781 105.175781 210.9375 108.398438 210.9375 C 111.621094 210.9375 114.257812 208.300781 114.257812 205.078125 Z M 114.257812 193.359375 " fill-opacity="1" fill-rule="nonzero"/><path fill="#ffffff" d="M 67.382812 228.515625 C 67.382812 225.292969 64.746094 222.65625 61.523438 222.65625 C 58.300781 222.65625 55.664062 225.292969 55.664062 228.515625 L 55.664062 240.234375 C 55.664062 243.457031 58.300781 246.09375 61.523438 246.09375 C 64.746094 246.09375 67.382812 243.457031 67.382812 240.234375 Z M 67.382812 228.515625 " fill-opacity="1" fill-rule="nonzero"/><path fill="#ffffff" d="M 90.820312 228.515625 C 90.820312 225.292969 88.183594 222.65625 84.960938 222.65625 C 81.738281 222.65625 79.101562 225.292969 79.101562 228.515625 L 79.101562 240.234375 C 79.101562 243.457031 81.738281 246.09375 84.960938 246.09375 C 88.183594 246.09375 90.820312 243.457031 90.820312 240.234375 Z M 90.820312 228.515625 " fill-opacity="1" fill-rule="nonzero"/><path fill="#ffffff" d="M 114.257812 240.234375 L 114.257812 228.515625 C 114.257812 225.292969 111.621094 222.65625 108.398438 222.65625 C 105.175781 222.65625 102.539062 225.292969 102.539062 228.515625 L 102.539062 240.234375 C 102.539062 243.457031 105.175781 246.09375 108.398438 246.09375 C 111.621094 246.09375 114.257812 243.457031 114.257812 240.234375 Z M 114.257812 240.234375 " fill-opacity="1" fill-rule="nonzero"/><path fill="#ffffff" d="M 67.382812 263.671875 C 67.382812 260.449219 64.746094 257.8125 61.523438 257.8125 C 58.300781 257.8125 55.664062 260.449219 55.664062 263.671875 L 55.664062 275.390625 C 55.664062 278.613281 58.300781 281.25 61.523438 281.25 C 64.746094 281.25 67.382812 278.613281 67.382812 275.390625 Z M 67.382812 263.671875 " fill-opacity="1" fill-rule="nonzero"/><path fill="#ffffff" d="M 90.820312 263.671875 C 90.820312 260.449219 88.183594 257.8125 84.960938 257.8125 C 81.738281 257.8125 79.101562 260.449219 79.101562 263.671875 L 79.101562 275.390625 C 79.101562 278.613281 81.738281 281.25 84.960938 281.25 C 88.183594 281.25 90.820312 278.613281 90.820312 275.390625 Z M 90.820312 263.671875 " fill-opacity="1" fill-rule="nonzero"/><path fill="#ffffff" d="M 67.382812 298.828125 C 67.382812 295.605469 64.746094 292.96875 61.523438 292.96875 C 58.300781 292.96875 55.664062 295.605469 55.664062 298.828125 L 55.664062 310.546875 C 55.664062 313.769531 58.300781 316.40625 61.523438 316.40625 C 64.746094 316.40625 67.382812 313.769531 67.382812 310.546875 Z M 67.382812 298.828125 " fill-opacity="1" fill-rule="nonzero"/><path fill="#ffffff" d="M 90.820312 298.828125 C 90.820312 295.605469 88.183594 292.96875 84.960938 292.96875 C 81.738281 292.96875 79.101562 295.605469 79.101562 298.828125 L 79.101562 310.546875 C 79.101562 313.769531 81.738281 316.40625 84.960938 316.40625 C 88.183594 316.40625 90.820312 313.769531 90.820312 310.546875 Z M 90.820312 298.828125 " fill-opacity="1" fill-rule="nonzero"/><path fill="#ffffff" d="M 61.523438 328.125 C 58.300781 328.125 55.664062 330.761719 55.664062 333.984375 L 55.664062 345.703125 C 55.664062 348.925781 58.300781 351.5625 61.523438 351.5625 C 64.746094 351.5625 67.382812 348.925781 67.382812 345.703125 L 67.382812 333.984375 C 67.382812 330.761719 64.746094 328.125 61.523438 328.125 Z M 61.523438 328.125 " fill-opacity="1" fill-rule="nonzero"/><path fill="#ffffff" d="M 84.960938 328.125 C 81.738281 328.125 79.101562 330.761719 79.101562 333.984375 L 79.101562 345.703125 C 79.101562 348.925781 81.738281 351.5625 84.960938 351.5625 C 88.183594 351.5625 90.820312 348.925781 90.820312 345.703125 L 90.820312 333.984375 C 90.820312 330.761719 88.183594 328.125 84.960938 328.125 Z M 84.960938 328.125 " fill-opacity="1" fill-rule="nonzero"/><path fill="#ffffff" d="M 266.601562 140.625 C 269.824219 140.625 272.460938 137.988281 272.460938 134.765625 L 272.460938 123.046875 C 272.460938 119.824219 269.824219 117.1875 266.601562 117.1875 C 263.378906 117.1875 260.742188 119.824219 260.742188 123.046875 L 260.742188 134.765625 C 260.742188 137.988281 263.378906 140.625 266.601562 140.625 Z M 266.601562 140.625 " fill-opacity="1" fill-rule="nonzero"/><path fill="#ffffff" d="M 290.039062 140.625 C 293.261719 140.625 295.898438 137.988281 295.898438 134.765625 L 295.898438 123.046875 C 295.898438 119.824219 293.261719 117.1875 290.039062 117.1875 C 286.816406 117.1875 284.179688 119.824219 284.179688 123.046875 L 284.179688 134.765625 C 284.179688 137.988281 286.816406 140.625 290.039062 140.625 Z M 290.039062 140.625 " fill-opacity="1" fill-rule="nonzero"/><path fill="#ffffff" d="M 313.476562 140.625 C 316.699219 140.625 319.335938 137.988281 319.335938 134.765625 L 319.335938 123.046875 C 319.335938 119.824219 316.699219 117.1875 313.476562 117.1875 C 310.253906 117.1875 307.617188 119.824219 307.617188 123.046875 L 307.617188 134.765625 C 307.617188 137.988281 310.253906 140.625 313.476562 140.625 Z M 313.476562 140.625 " fill-opacity="1" fill-rule="nonzero"/><path fill="#ffffff" d="M 260.742188 169.921875 C 260.742188 173.144531 263.378906 175.78125 266.601562 175.78125 C 269.824219 175.78125 272.460938 173.144531 272.460938 169.921875 L 272.460938 158.203125 C 272.460938 154.980469 269.824219 152.34375 266.601562 152.34375 C 263.378906 152.34375 260.742188 154.980469 260.742188 158.203125 Z M 260.742188 169.921875 " fill-opacity="1" fill-rule="nonzero"/><path fill="#ffffff" d="M 284.179688 169.921875 C 284.179688 173.144531 286.816406 175.78125 290.039062 175.78125 C 293.261719 175.78125 295.898438 173.144531 295.898438 169.921875 L 295.898438 158.203125 C 295.898438 154.980469 293.261719 152.34375 290.039062 152.34375 C 286.816406 152.34375 284.179688 154.980469 284.179688 158.203125 Z M 284.179688 169.921875 " fill-opacity="1" fill-rule="nonzero"/><path fill="#ffffff" d="M 307.617188 169.921875 C 307.617188 173.144531 310.253906 175.78125 313.476562 175.78125 C 316.699219 175.78125 319.335938 173.144531 319.335938 169.921875 L 319.335938 158.203125 C 319.335938 154.980469 316.699219 152.34375 313.476562 152.34375 C 310.253906 152.34375 307.617188 154.980469 307.617188 158.203125 Z M 307.617188 169.921875 " fill-opacity="1" fill-rule="nonzero"/><path fill="#ffffff" d="M 260.742188 205.078125 C 260.742188 208.300781 263.378906 210.9375 266.601562 210.9375 C 269.824219 210.9375 272.460938 208.300781 272.460938 205.078125 L 272.460938 193.359375 C 272.460938 190.136719 269.824219 187.5 266.601562 187.5 C 263.378906 187.5 260.742188 190.136719 260.742188 193.359375 Z M 260.742188 205.078125 " fill-opacity="1" fill-rule="nonzero"/><path fill="#ffffff" d="M 284.179688 205.078125 C 284.179688 208.300781 286.816406 210.9375 290.039062 210.9375 C 293.261719 210.9375 295.898438 208.300781 295.898438 205.078125 L 295.898438 193.359375 C 295.898438 190.136719 293.261719 187.5 290.039062 187.5 C 286.816406 187.5 284.179688 190.136719 284.179688 193.359375 Z M 284.179688 205.078125 " fill-opacity="1" fill-rule="nonzero"/><path fill="#ffffff" d="M 307.617188 205.078125 C 307.617188 208.300781 310.253906 210.9375 313.476562 210.9375 C 316.699219 210.9375 319.335938 208.300781 319.335938 205.078125 L 319.335938 193.359375 C 319.335938 190.136719 316.699219 187.5 313.476562 187.5 C 310.253906 187.5 307.617188 190.136719 307.617188 193.359375 Z M 307.617188 205.078125 " fill-opacity="1" fill-rule="nonzero"/><path fill="#ffffff" d="M 260.742188 240.234375 C 260.742188 243.457031 263.378906 246.09375 266.601562 246.09375 C 269.824219 246.09375 272.460938 243.457031 272.460938 240.234375 L 272.460938 228.515625 C 272.460938 225.292969 269.824219 222.65625 266.601562 222.65625 C 263.378906 222.65625 260.742188 225.292969 260.742188 228.515625 Z M 260.742188 240.234375 " fill-opacity="1" fill-rule="nonzero"/><path fill="#ffffff" d="M 284.179688 240.234375 C 284.179688 243.457031 286.816406 246.09375 290.039062 246.09375 C 293.261719 246.09375 295.898438 243.457031 295.898438 240.234375 L 295.898438 228.515625 C 295.898438 225.292969 293.261719 222.65625 290.039062 222.65625 C 286.816406 222.65625 284.179688 225.292969 284.179688 228.515625 Z M 284.179688 240.234375 " fill-opacity="1" fill-rule="nonzero"/><path fill="#ffffff" d="M 307.617188 240.234375 C 307.617188 243.457031 310.253906 246.09375 313.476562 246.09375 C 316.699219 246.09375 319.335938 243.457031 319.335938 240.234375 L 319.335938 228.515625 C 319.335938 225.292969 316.699219 222.65625 313.476562 222.65625 C 310.253906 222.65625 307.617188 225.292969 307.617188 228.515625 Z M 307.617188 240.234375 " fill-opacity="1" fill-rule="nonzero"/><path fill="#ffffff" d="M 284.179688 275.390625 C 284.179688 278.613281 286.816406 281.25 290.039062 281.25 C 293.261719 281.25 295.898438 278.613281 295.898438 275.390625 L 295.898438 263.671875 C 295.898438 260.449219 293.261719 257.8125 290.039062 257.8125 C 286.816406 257.8125 284.179688 260.449219 284.179688 263.671875 Z M 284.179688 275.390625 " fill-opacity="1" fill-rule="nonzero"/><path fill="#ffffff" d="M 307.617188 275.390625 C 307.617188 278.613281 310.253906 281.25 313.476562 281.25 C 316.699219 281.25 319.335938 278.613281 319.335938 275.390625 L 319.335938 263.671875 C 319.335938 260.449219 316.699219 257.8125 313.476562 257.8125 C 310.253906 257.8125 307.617188 260.449219 307.617188 263.671875 Z M 307.617188 275.390625 " fill-opacity="1" fill-rule="nonzero"/><path fill="#ffffff" d="M 284.179688 310.546875 C 284.179688 313.769531 286.816406 316.40625 290.039062 316.40625 C 293.261719 316.40625 295.898438 313.769531 295.898438 310.546875 L 295.898438 298.828125 C 295.898438 295.605469 293.261719 292.96875 290.039062 292.96875 C 286.816406 292.96875 284.179688 295.605469 284.179688 298.828125 Z M 284.179688 310.546875 " fill-opacity="1" fill-rule="nonzero"/><path fill="#ffffff" d="M 307.617188 310.546875 C 307.617188 313.769531 310.253906 316.40625 313.476562 316.40625 C 316.699219 316.40625 319.335938 313.769531 319.335938 310.546875 L 319.335938 298.828125 C 319.335938 295.605469 316.699219 292.96875 313.476562 292.96875 C 310.253906 292.96875 307.617188 295.605469 307.617188 298.828125 Z M 307.617188 310.546875 " fill-opacity="1" fill-rule="nonzero"/><path fill="#ffffff" d="M 284.179688 345.703125 C 284.179688 348.925781 286.816406 351.5625 290.039062 351.5625 C 293.261719 351.5625 295.898438 348.925781 295.898438 345.703125 L 295.898438 333.984375 C 295.898438 330.761719 293.261719 328.125 290.039062 328.125 C 286.816406 328.125 284.179688 330.761719 284.179688 333.984375 Z M 284.179688 345.703125 " fill-opacity="1" fill-rule="nonzero"/><path fill="#ffffff" d="M 307.617188 345.703125 C 307.617188 348.925781 310.253906 351.5625 313.476562 351.5625 C 316.699219 351.5625 319.335938 348.925781 319.335938 345.703125 L 319.335938 333.984375 C 319.335938 330.761719 316.699219 328.125 313.476562 328.125 C 310.253906 328.125 307.617188 330.761719 307.617188 333.984375 Z M 307.617188 345.703125 " fill-opacity="1" fill-rule="nonzero"/><path fill="#ffffff" d="M 272.460938 263.671875 C 272.460938 260.449219 269.824219 257.8125 266.601562 257.8125 C 265.722656 257.8125 265.136719 258.105469 264.550781 258.105469 C 264.257812 260.15625 263.964844 262.5 263.378906 264.550781 C 266.894531 266.308594 270.117188 269.238281 272.460938 272.167969 Z M 272.460938 263.671875 " fill-opacity="1" fill-rule="nonzero"/><path fill="#ffffff" d="M 216.796875 210.9375 L 211.230469 210.9375 C 214.453125 213.28125 217.089844 216.503906 218.847656 220.019531 C 220.019531 219.726562 220.898438 219.433594 222.070312 219.140625 C 222.363281 218.261719 222.65625 217.382812 222.65625 216.503906 C 222.65625 213.574219 220.019531 210.9375 216.796875 210.9375 Z M 216.796875 210.9375 " fill-opacity="1" fill-rule="nonzero"/><path fill="#ffffff" d="M 152.34375 216.796875 C 152.34375 217.675781 152.636719 218.554688 152.929688 219.433594 C 154.101562 219.726562 154.980469 220.019531 156.152344 220.3125 C 157.910156 216.796875 160.839844 213.574219 163.769531 211.230469 L 158.203125 211.230469 C 154.980469 210.9375 152.34375 213.574219 152.34375 216.796875 Z M 152.34375 216.796875 " fill-opacity="1" fill-rule="nonzero"/><path fill="#ffffff" d="M 108.398438 328.125 C 105.175781 328.125 102.539062 330.761719 102.539062 333.984375 L 102.539062 345.703125 C 102.539062 348.925781 105.175781 351.5625 108.398438 351.5625 C 110.742188 351.5625 112.5 350.390625 113.671875 348.339844 C 110.449219 342.1875 109.863281 335.449219 111.621094 328.710938 C 110.449219 328.417969 109.570312 328.125 108.398438 328.125 Z M 108.398438 328.125 " fill-opacity="1" fill-rule="nonzero"/><path fill="#ffffff" d="M 110.449219 258.105469 C 109.863281 258.105469 109.277344 257.8125 108.398438 257.8125 C 105.175781 257.8125 102.539062 260.449219 102.539062 263.671875 L 102.539062 272.167969 C 104.882812 268.945312 108.105469 266.308594 111.621094 264.550781 C 111.035156 262.5 110.742188 260.449219 110.449219 258.105469 Z M 110.449219 258.105469 " fill-opacity="1" fill-rule="nonzero"/><path fill="#ffffff" d="M 238.769531 356.542969 L 248.144531 347.167969 C 251.074219 344.238281 252.832031 340.136719 252.832031 335.742188 C 252.832031 331.347656 251.074219 327.246094 248.144531 324.316406 L 246.386719 322.558594 C 246.972656 321.386719 247.558594 319.921875 248.144531 318.457031 L 250.488281 318.457031 C 259.277344 318.457031 266.601562 311.132812 266.601562 302.34375 L 266.601562 289.160156 C 266.601562 280.371094 259.277344 273.046875 250.488281 273.046875 L 248.144531 273.046875 C 247.558594 271.582031 246.972656 270.410156 246.386719 268.945312 L 248.144531 267.1875 C 251.074219 264.257812 252.832031 260.15625 252.832031 255.761719 C 252.832031 251.367188 251.074219 247.265625 248.144531 244.335938 L 238.769531 234.960938 C 235.839844 232.03125 231.738281 230.273438 227.34375 230.273438 C 222.949219 230.273438 218.847656 232.03125 215.917969 234.960938 L 214.160156 236.71875 C 212.988281 236.132812 211.523438 235.546875 210.058594 234.960938 L 210.058594 232.617188 C 210.058594 223.828125 202.734375 216.503906 193.945312 216.503906 L 180.761719 216.503906 C 171.972656 216.503906 164.648438 223.828125 164.648438 232.617188 L 164.648438 234.960938 C 163.183594 235.546875 162.011719 236.132812 160.546875 236.71875 L 158.789062 234.960938 C 155.859375 232.03125 151.757812 230.273438 147.363281 230.273438 C 142.96875 230.273438 139.160156 232.03125 135.9375 234.960938 L 126.5625 244.335938 C 120.410156 250.488281 120.410156 260.742188 126.5625 267.1875 L 128.320312 268.945312 C 127.734375 270.117188 127.148438 271.582031 126.5625 273.046875 L 124.21875 273.046875 C 115.429688 273.046875 108.105469 280.371094 108.105469 289.160156 L 108.105469 302.34375 C 108.105469 311.132812 115.429688 318.457031 124.21875 318.457031 L 126.5625 318.457031 C 127.148438 319.921875 127.734375 321.09375 128.320312 322.558594 L 126.5625 324.316406 C 120.410156 330.761719 120.410156 340.722656 126.5625 347.167969 L 135.9375 356.542969 C 138.867188 359.472656 142.96875 361.230469 147.363281 361.230469 C 151.757812 361.230469 155.566406 359.472656 158.789062 356.542969 L 160.546875 354.785156 C 161.71875 355.371094 163.183594 355.957031 164.648438 356.542969 L 164.648438 358.886719 C 164.648438 367.675781 171.972656 375 180.761719 375 L 193.945312 375 C 202.734375 375 210.058594 367.675781 210.058594 358.886719 L 210.058594 356.542969 C 211.523438 355.957031 212.695312 355.371094 214.160156 354.785156 L 215.917969 356.542969 C 218.847656 359.472656 222.949219 361.230469 227.34375 361.230469 C 231.738281 361.230469 235.546875 359.472656 238.769531 356.542969 Z M 219.433594 343.652344 C 218.261719 342.480469 216.796875 342.1875 215.332031 342.1875 C 214.453125 342.1875 213.28125 342.480469 212.402344 342.773438 C 209.472656 344.53125 206.25 345.703125 202.734375 346.875 C 200.390625 347.460938 198.339844 350.097656 198.339844 352.441406 L 198.339844 359.179688 C 198.339844 361.523438 196.289062 363.574219 193.945312 363.574219 L 180.761719 363.574219 C 178.417969 363.574219 176.367188 361.523438 176.367188 359.179688 L 176.367188 352.441406 C 176.367188 350.097656 174.316406 347.460938 171.972656 346.875 C 168.75 345.996094 165.527344 344.53125 162.304688 342.773438 C 160.253906 341.601562 157.03125 341.894531 155.273438 343.652344 C 155.273438 343.652344 150.585938 348.339844 150.585938 348.339844 C 148.828125 350.097656 146.191406 350.097656 144.433594 348.339844 L 135.058594 338.964844 C 133.300781 337.207031 133.300781 334.570312 135.058594 332.8125 L 139.746094 328.125 C 141.503906 326.367188 141.796875 323.144531 140.625 321.09375 C 138.867188 318.164062 137.695312 314.941406 136.523438 311.425781 C 135.9375 309.082031 133.300781 307.03125 130.957031 307.03125 L 124.21875 307.03125 C 121.875 307.03125 119.824219 304.980469 119.824219 302.636719 L 119.824219 289.453125 C 119.824219 287.109375 121.875 285.058594 124.21875 285.058594 L 130.957031 285.058594 C 133.300781 285.058594 135.9375 283.007812 136.523438 280.664062 C 137.402344 277.441406 138.867188 274.21875 140.625 270.996094 C 141.796875 268.945312 141.503906 265.722656 139.746094 263.964844 L 135.058594 259.277344 C 133.300781 257.519531 133.300781 254.882812 135.058594 253.125 L 144.433594 243.75 C 146.191406 241.992188 148.828125 241.992188 150.585938 243.75 C 150.585938 243.75 155.273438 248.4375 155.273438 248.4375 C 157.03125 250.195312 160.253906 250.488281 162.304688 249.316406 C 165.234375 247.558594 168.457031 246.386719 171.972656 245.214844 C 174.316406 244.628906 176.367188 241.992188 176.367188 239.648438 L 176.367188 232.910156 C 176.367188 230.566406 178.417969 228.515625 180.761719 228.515625 L 193.945312 228.515625 C 196.289062 228.515625 198.339844 230.566406 198.339844 232.910156 L 198.339844 239.648438 C 198.339844 241.992188 200.390625 244.628906 202.734375 245.214844 C 205.957031 246.09375 209.179688 247.558594 212.402344 249.316406 C 213.28125 249.902344 214.160156 249.902344 215.332031 249.902344 C 216.796875 249.902344 218.261719 249.316406 219.433594 248.4375 L 224.121094 243.75 C 225.878906 241.992188 228.808594 241.992188 230.273438 243.75 L 239.648438 253.125 C 241.40625 254.882812 241.40625 257.519531 239.648438 259.277344 L 234.960938 263.964844 C 233.203125 265.722656 232.910156 268.945312 234.082031 270.996094 C 235.839844 273.925781 237.011719 277.148438 238.183594 280.664062 C 238.769531 283.007812 241.40625 285.058594 243.75 285.058594 L 250.488281 285.058594 C 252.832031 285.058594 254.882812 287.109375 254.882812 289.453125 L 254.882812 302.636719 C 254.882812 304.980469 252.832031 307.03125 250.488281 307.03125 L 243.75 307.03125 C 241.40625 307.03125 238.769531 309.082031 238.183594 311.425781 C 237.304688 314.648438 235.839844 317.871094 234.082031 321.09375 C 232.910156 323.144531 233.203125 326.367188 234.960938 328.125 L 239.648438 332.8125 C 241.40625 334.570312 241.40625 337.207031 239.648438 338.964844 L 230.273438 348.339844 C 229.394531 349.21875 228.222656 349.511719 227.050781 349.511719 C 225.878906 349.511719 224.707031 349.21875 223.828125 348.339844 Z M 219.433594 343.652344 " fill-opacity="1" fill-rule="nonzero"/><path fill="#ffffff" d="M 187.5 263.671875 C 169.628906 263.671875 155.273438 278.027344 155.273438 295.898438 C 155.273438 313.769531 169.628906 328.125 187.5 328.125 C 205.371094 328.125 219.726562 313.769531 219.726562 295.898438 C 219.726562 278.027344 205.371094 263.671875 187.5 263.671875 Z M 187.5 316.40625 C 176.074219 316.40625 166.992188 307.324219 166.992188 295.898438 C 166.992188 284.472656 176.074219 275.390625 187.5 275.390625 C 198.925781 275.390625 208.007812 284.472656 208.007812 295.898438 C 208.007812 307.324219 198.925781 316.40625 187.5 316.40625 Z M 187.5 316.40625 " fill-opacity="1" fill-rule="nonzero"/><path fill="#ffffff" d="M 131.835938 118.652344 L 131.835938 17.578125 C 131.835938 14.355469 134.472656 11.71875 137.695312 11.71875 L 237.304688 11.71875 C 240.527344 11.71875 243.164062 14.355469 243.164062 17.578125 L 243.164062 83.496094 C 245.800781 82.617188 249.023438 82.03125 251.953125 82.03125 L 254.882812 82.03125 L 254.882812 17.578125 C 254.882812 7.910156 246.972656 0 237.304688 0 L 137.695312 0 C 128.027344 0 120.117188 7.910156 120.117188 17.578125 L 120.117188 117.1875 L 123.046875 117.1875 C 125.976562 117.1875 129.199219 117.773438 131.835938 118.652344 Z M 131.835938 118.652344 " fill-opacity="1" fill-rule="nonzero"/><path fill="#ffffff" d="M 266.601562 351.5625 C 269.824219 351.5625 272.460938 348.925781 272.460938 345.703125 L 272.460938 333.984375 C 272.460938 330.761719 269.824219 328.125 266.601562 328.125 C 265.429688 328.125 264.550781 328.417969 263.671875 329.003906 C 264.257812 331.347656 264.550781 333.398438 264.550781 335.742188 C 264.550781 340.136719 263.378906 344.53125 261.328125 348.339844 C 262.5 350.390625 264.257812 351.5625 266.601562 351.5625 Z M 266.601562 351.5625 " fill-opacity="1" fill-rule="nonzero"/><path fill="#ffffff" d="M 147.65625 372.949219 C 141.210938 372.949219 134.765625 370.605469 129.785156 366.503906 C 128.613281 365.625 127.441406 364.453125 126.269531 363.28125 L 41.015625 363.28125 L 41.015625 146.484375 C 41.015625 143.261719 43.652344 140.625 46.875 140.625 L 123.046875 140.625 C 126.269531 140.625 128.90625 143.261719 128.90625 146.484375 L 128.90625 226.171875 C 132.421875 222.949219 136.230469 220.898438 140.625 219.726562 L 140.625 146.484375 C 140.625 136.816406 132.714844 128.90625 123.046875 128.90625 L 102.539062 128.90625 L 102.539062 123.046875 C 102.539062 119.824219 99.902344 117.1875 96.679688 117.1875 C 93.457031 117.1875 90.820312 119.824219 90.820312 123.046875 L 90.820312 128.90625 L 79.101562 128.90625 L 79.101562 123.046875 C 79.101562 119.824219 76.464844 117.1875 73.242188 117.1875 C 70.019531 117.1875 67.382812 119.824219 67.382812 123.046875 L 67.382812 128.90625 L 46.875 128.90625 C 37.207031 128.90625 29.296875 136.816406 29.296875 146.484375 L 29.296875 363.28125 L 5.859375 363.28125 C 2.636719 363.28125 0 365.917969 0 369.140625 C 0 372.363281 2.636719 375 5.859375 375 L 158.203125 375 C 157.324219 373.828125 156.738281 372.949219 156.152344 371.777344 C 153.515625 372.65625 150.585938 372.949219 147.65625 372.949219 Z M 147.65625 372.949219 " fill-opacity="1" fill-rule="nonzero"/><path fill="#ffffff" d="M 369.140625 363.28125 L 345.703125 363.28125 L 345.703125 111.328125 C 345.703125 101.660156 337.792969 93.75 328.125 93.75 L 307.617188 93.75 L 307.617188 87.890625 C 307.617188 84.667969 304.980469 82.03125 301.757812 82.03125 C 298.535156 82.03125 295.898438 84.667969 295.898438 87.890625 L 295.898438 93.75 L 284.179688 93.75 L 284.179688 87.890625 C 284.179688 84.667969 281.542969 82.03125 278.320312 82.03125 C 275.097656 82.03125 272.460938 84.667969 272.460938 87.890625 L 272.460938 93.75 L 251.953125 93.75 C 242.285156 93.75 234.375 101.660156 234.375 111.328125 L 234.375 219.726562 C 238.769531 220.898438 242.578125 222.949219 246.09375 226.171875 L 246.09375 111.328125 C 246.09375 108.105469 248.730469 105.46875 251.953125 105.46875 L 328.125 105.46875 C 331.347656 105.46875 333.984375 108.105469 333.984375 111.328125 L 333.984375 363.28125 L 248.4375 363.28125 C 242.578125 369.140625 235.546875 372.949219 227.34375 372.949219 C 224.414062 372.949219 221.484375 372.363281 218.847656 371.777344 C 218.261719 372.949219 217.675781 374.121094 216.796875 375 L 369.140625 375 C 372.363281 375 375 372.363281 375 369.140625 C 375 365.917969 372.363281 363.28125 369.140625 363.28125 Z M 369.140625 363.28125 " fill-opacity="1" fill-rule="nonzero"/></svg>