<svg xmlns="http://www.w3.org/2000/svg" xmlns:xlink="http://www.w3.org/1999/xlink" width="500" zoomAndPan="magnify" viewBox="0 0 375 374.999991" height="500" preserveAspectRatio="xMidYMid meet" version="1.0"><path fill="#ffffff" d="M 46.875 58.59375 L 46.875 11.71875 C 46.875 5.242188 52.117188 0 58.59375 0 C 65.070312 0 70.3125 5.242188 70.3125 11.71875 L 70.3125 58.59375 C 70.3125 65.070312 65.070312 70.3125 58.59375 70.3125 C 52.117188 70.3125 46.875 65.070312 46.875 58.59375 Z M 246.09375 70.3125 C 252.570312 70.3125 257.8125 65.070312 257.8125 58.59375 L 257.8125 11.71875 C 257.8125 5.242188 252.570312 0 246.09375 0 C 239.617188 0 234.375 5.242188 234.375 11.71875 L 234.375 58.59375 C 234.375 65.070312 239.617188 70.3125 246.09375 70.3125 Z M 375 281.25 C 375 333.023438 333.023438 375 281.25 375 C 229.476562 375 187.5 333.023438 187.5 281.25 C 187.5 229.476562 229.476562 187.5 281.25 187.5 C 333.023438 187.5 375 229.476562 375 281.25 Z M 351.5625 281.25 C 351.5625 242.476562 320.023438 210.9375 281.25 210.9375 C 242.476562 210.9375 210.9375 242.476562 210.9375 281.25 C 210.9375 320.023438 242.476562 351.5625 281.25 351.5625 C 320.023438 351.5625 351.5625 320.023438 351.5625 281.25 Z M 93.75 140.625 L 46.875 140.625 L 46.875 187.5 L 93.75 187.5 Z M 46.875 257.8125 L 93.75 257.8125 L 93.75 210.9375 L 46.875 210.9375 Z M 117.1875 187.5 L 164.0625 187.5 L 164.0625 140.625 L 117.1875 140.625 Z M 117.1875 257.8125 L 164.0625 257.8125 L 164.0625 210.9375 L 117.1875 210.9375 Z M 23.4375 278.914062 L 23.4375 117.1875 L 281.25 117.1875 L 281.25 164.0625 L 304.6875 164.0625 L 304.6875 72.648438 C 304.6875 58.410156 293.335938 46.875 279.304688 46.875 L 269.53125 46.875 L 269.53125 58.59375 C 269.53125 71.503906 259.023438 82.03125 246.09375 82.03125 C 233.160156 82.03125 222.65625 71.503906 222.65625 58.59375 L 222.65625 46.875 L 82.03125 46.875 L 82.03125 58.59375 C 82.03125 71.503906 71.523438 82.03125 58.59375 82.03125 C 45.664062 82.03125 35.15625 71.503906 35.15625 58.59375 L 35.15625 46.875 L 25.394531 46.875 C 11.363281 46.875 0 58.410156 0 72.648438 L 0 278.914062 C 0 293.105469 11.363281 304.6875 25.394531 304.6875 L 164.0625 304.6875 L 164.0625 281.25 L 25.394531 281.25 C 24.332031 281.25 23.4375 280.152344 23.4375 278.914062 Z M 234.375 187.5 L 234.375 140.625 L 187.5 140.625 L 187.5 187.5 Z M 330.964844 258.40625 C 326.386719 253.832031 318.96875 253.832031 314.390625 258.40625 L 272.964844 299.835938 L 248.105469 274.980469 C 243.53125 270.402344 236.113281 270.402344 231.535156 274.980469 C 226.957031 279.554688 226.957031 286.972656 231.535156 291.550781 L 264.679688 324.691406 C 266.96875 326.980469 269.964844 328.125 272.964844 328.125 C 275.960938 328.125 278.960938 326.980469 281.25 324.691406 L 330.964844 274.980469 C 335.539062 270.402344 335.539062 262.984375 330.964844 258.40625 Z M 330.964844 258.40625 " fill-opacity="1" fill-rule="nonzero"/></svg>