<svg xmlns="http://www.w3.org/2000/svg" xmlns:xlink="http://www.w3.org/1999/xlink" width="500" zoomAndPan="magnify" viewBox="0 0 375 374.999991" height="500" preserveAspectRatio="xMidYMid meet" version="1.0"><defs><clipPath id="id1"><path d="M 87 200 L 288 200 L 288 318.617188 L 87 318.617188 Z M 87 200 " clip-rule="nonzero"/></clipPath></defs><path fill="#ffffff" d="M 81.464844 146.421875 C 106.066406 146.421875 126.042969 126.449219 126.042969 101.777344 C 126.042969 77.140625 106.066406 57.136719 81.464844 57.136719 C 56.828125 57.136719 36.855469 77.140625 36.855469 101.777344 C 36.855469 126.449219 56.828125 146.421875 81.464844 146.421875 " fill-opacity="1" fill-rule="nonzero"/><path fill="#ffffff" d="M 120.152344 141.417969 C 110.128906 150.988281 96.480469 156.890625 81.464844 156.890625 C 66.417969 156.890625 52.769531 150.988281 42.746094 141.417969 L 37.621094 140.351562 C 35.921875 140.152344 34.324219 140.152344 32.792969 140.386719 C 31.292969 140.621094 29.894531 141.085938 28.265625 141.652344 C 26.667969 142.253906 24.800781 142.953125 22.472656 144.351562 C 20.140625 145.71875 17.378906 147.820312 14.683594 151.320312 C 12.019531 154.789062 9.488281 159.6875 7.15625 165.492188 C 4.828125 171.324219 2.730469 178.058594 1.566406 184.558594 C 0.398438 191.09375 0.199219 197.363281 0.0664062 202.128906 C -0.0664062 206.898438 -0.0664062 210.164062 0.398438 213.296875 C 0.867188 216.433594 1.796875 219.433594 3.894531 222.46875 C 5.992188 225.5 9.222656 228.535156 13.082031 230.835938 C 16.878906 233.167969 21.308594 234.800781 27.367188 235.601562 C 33.390625 236.4375 41.050781 236.4375 50.335938 236.4375 L 85.492188 236.4375 C 86.824219 231.46875 89.253906 226.367188 90.988281 221.964844 C 93.851562 214.800781 98.511719 209.066406 101.804688 204.765625 C 105.101562 200.464844 108.53125 197.894531 111.394531 196.195312 C 114.222656 194.460938 116.523438 193.59375 118.519531 192.894531 C 120.515625 192.160156 122.246094 191.59375 124.078125 191.328125 C 125.941406 191.027344 127.941406 191.027344 130.003906 191.292969 L 136.332031 192.59375 C 128.207031 183.027344 123.3125 170.625 123.3125 157.054688 C 123.3125 151.019531 124.277344 145.21875 126.078125 139.785156 L 120.152344 141.417969 " fill-opacity="1" fill-rule="nonzero"/><path fill="#ffffff" d="M 187.5 98.011719 C 157.203125 98.011719 132.636719 122.582031 132.636719 152.921875 C 132.636719 183.292969 157.203125 207.863281 187.5 207.863281 C 217.796875 207.863281 242.363281 183.292969 242.363281 152.921875 C 242.363281 122.582031 217.796875 98.011719 187.5 98.011719 " fill-opacity="1" fill-rule="nonzero"/><g clip-path="url(#id1)"><path fill="#ffffff" d="M 187.5 220.765625 C 168.988281 220.765625 152.210938 213.5 139.859375 201.730469 L 133.566406 200.429688 C 131.503906 200.164062 129.503906 200.164062 127.640625 200.429688 C 125.777344 200.730469 124.078125 201.296875 122.082031 202.03125 C 120.082031 202.730469 117.785156 203.597656 114.921875 205.296875 C 112.0625 207.03125 108.632812 209.597656 105.367188 213.898438 C 102.074219 218.167969 98.910156 224.199219 96.082031 231.335938 C 93.21875 238.503906 90.652344 246.804688 89.222656 254.804688 C 87.789062 262.808594 87.492188 270.542969 87.359375 276.410156 C 87.226562 282.277344 87.226562 286.277344 87.789062 290.144531 C 88.355469 294.011719 89.488281 297.714844 92.085938 301.445312 C 94.648438 305.148438 98.644531 308.882812 103.339844 311.75 C 108.066406 314.617188 113.492188 316.617188 120.949219 317.617188 C 128.339844 318.617188 137.796875 318.617188 149.214844 318.617188 L 225.785156 318.617188 C 237.238281 318.617188 246.660156 318.617188 254.050781 317.617188 C 261.507812 316.617188 266.933594 314.617188 271.628906 311.75 C 276.355469 308.882812 280.351562 305.148438 282.949219 301.445312 C 285.511719 297.714844 286.644531 294.011719 287.210938 290.144531 C 287.808594 286.277344 287.808594 282.277344 287.640625 276.410156 C 287.507812 270.542969 287.210938 262.808594 285.777344 254.804688 C 284.347656 246.804688 281.78125 238.503906 278.917969 231.335938 C 276.089844 224.199219 272.925781 218.167969 269.664062 213.898438 C 266.367188 209.597656 262.9375 207.03125 260.078125 205.296875 C 257.214844 203.597656 254.917969 202.730469 252.917969 202.03125 C 250.921875 201.296875 249.222656 200.730469 247.359375 200.429688 C 245.496094 200.164062 243.496094 200.164062 241.433594 200.429688 L 235.140625 201.730469 C 222.789062 213.5 206.011719 220.765625 187.5 220.765625 " fill-opacity="1" fill-rule="nonzero"/></g><path fill="#ffffff" d="M 263.605469 196.195312 C 266.46875 197.894531 269.898438 200.464844 273.191406 204.765625 C 276.488281 209.066406 281.117188 214.800781 284.011719 221.964844 C 285.777344 226.367188 288.175781 231.46875 289.507812 236.4375 L 324.664062 236.4375 C 333.949219 236.4375 341.609375 236.4375 347.632812 235.601562 C 353.691406 234.800781 358.121094 233.167969 361.917969 230.835938 C 365.746094 228.535156 369.007812 225.5 371.105469 222.46875 C 373.167969 219.433594 374.132812 216.433594 374.601562 213.296875 C 375.066406 210.164062 375.066406 206.898438 374.933594 202.128906 C 374.800781 197.363281 374.601562 191.09375 373.433594 184.558594 C 372.269531 178.058594 370.171875 171.324219 367.84375 165.492188 C 365.546875 159.6875 362.980469 154.789062 360.316406 151.320312 C 357.65625 147.820312 354.859375 145.71875 352.527344 144.351562 C 350.199219 142.953125 348.332031 142.253906 346.703125 141.652344 C 345.070312 141.085938 343.707031 140.621094 342.207031 140.386719 C 340.675781 140.152344 339.042969 140.152344 337.378906 140.351562 L 332.253906 141.417969 C 322.230469 150.988281 308.582031 156.890625 293.535156 156.890625 C 278.519531 156.890625 264.871094 150.988281 254.847656 141.417969 L 248.921875 139.785156 C 250.722656 145.21875 251.6875 151.019531 251.6875 157.054688 C 251.6875 170.625 246.792969 183.027344 238.667969 192.59375 L 244.960938 191.292969 C 247.027344 191.027344 249.023438 191.027344 250.921875 191.328125 C 252.753906 191.59375 254.449219 192.160156 256.480469 192.894531 C 258.476562 193.59375 260.777344 194.460938 263.605469 196.195312 " fill-opacity="1" fill-rule="nonzero"/><path fill="#ffffff" d="M 248.957031 101.777344 C 248.957031 126.449219 268.933594 146.421875 293.535156 146.421875 C 318.171875 146.421875 338.113281 126.449219 338.113281 101.777344 C 338.113281 77.140625 318.171875 57.136719 293.535156 57.136719 C 268.933594 57.136719 248.957031 77.140625 248.957031 101.777344 " fill-opacity="1" fill-rule="nonzero"/></svg>